<?xml version="1.0" encoding="UTF-8"?>
<svg id="_图层_1" data-name="图层 1" xmlns="http://www.w3.org/2000/svg" viewBox="0 0 1561.75 1776.22">
  <defs>
    <style>
      .cls-1 {
        fill: #fff;
      }

      .cls-1, .cls-2 {
        stroke-width: 0px;
      }

      .cls-2 {
        fill: #0ea982;
      }
    </style>
  </defs>
  <g>
    <path class="cls-2" d="M767.86,1775.69c-7.78-1.2-16.86-4.17-24.28-7.69-7.23-3.52-697.62-401.95-705.59-407.23-13.34-8.8-26.78-26.04-32.43-41.6C-.46,1302.49,0,1335.94,0,888.03s-.46-414.46,5.56-431.13c5.47-15.01,16.68-30.02,29.47-39.38,3.43-2.5,26.87-16.4,52.07-30.95,25.2-14.55,181.79-104.98,347.93-200.88C601.17,89.7,740.43,9.64,744.51,7.69,757.3,1.67,765.54-.09,781.57,0c15.84.09,23.72,1.76,35.49,7.32,3.8,1.76,164.47,94.23,357.1,205.42,247.86,143.16,352.1,203.75,356.36,207.37,14.83,12.42,24.55,28.08,29.47,47.26,1.76,6.76,1.76,16.68,1.76,420.66s0,413.9-1.76,420.66c-4.91,19.18-14.64,34.84-29.47,47.26-4.26,3.61-108.41,64.21-356.36,207.37-192.63,111.19-353.3,203.66-357.1,205.42-10.1,4.82-19.83,6.95-32.71,7.41-6.12.19-13.53,0-16.49-.46h0ZM853.66,1413.49c23.91-4.17,43.09-10.38,63.66-20.57,24.28-12.05,43.92-26.13,63.01-45.31,28.63-28.63,48.18-60.97,60.88-100.9l4.35-13.71,14.92-.56c50.41-1.95,97.48-18.62,137.6-48.74,69.31-51.98,102.39-138.34,85.24-222.38-8.8-43.36-29.93-84.23-61.06-118.23-7.13-7.78-9.27-10.84-9.36-12.88,0-1.48,2.13-6.39,5-11.58,13.16-23.35,23.53-54.02,28.08-82.74,1.3-8.15,1.67-15.57,1.58-33.63,0-20.76-.28-24.55-2.5-36.6-4.35-24.37-10.75-43.46-21.68-65.05-34.01-67.27-99.79-112.12-180.03-122.68-8.99-1.11-16.03-1.39-31.5-1.02-21.4.56-31.6,1.85-50.22,6.3-6.49,1.58-12.69,2.69-13.81,2.5-1.48-.19-3.71-3.06-8.06-10.01-18.72-30.39-43.92-56.52-73.11-75.98-40.49-26.87-89.04-41.33-133.24-39.56-68.57,2.78-135.56,40.03-177.35,98.49-14.92,20.94-26.13,43.55-34.56,69.59l-4.91,15.1h-8.34c-34.28,0-73.2,9.45-105.44,25.57-57.35,28.72-97.94,74.5-116.84,131.94-12.88,39.1-14.92,73.29-6.95,113.41,8.8,44.29,31.04,86.82,63.19,121.01,8.71,9.36,8.8,10.19,2.69,21.22-13.25,23.53-23.07,51.98-28.17,81.26-2.78,16.22-3.06,51.89-.46,67.55,4.73,28.72,13.53,54.2,26.87,78.2,35.67,63.84,102.94,107.11,179.29,115.08,13.25,1.39,44.66.65,57.08-1.39,5-.83,13.71-2.59,19.46-3.89,5.65-1.39,11.95-2.69,13.99-2.87,3.61-.37,3.71-.28,6.39,4.54,4.63,8.43,16.77,25.85,24.46,35.02,15.57,18.62,40.03,39.84,59.58,51.7,10.56,6.3,32.34,16.77,43.83,21.03,15.84,5.84,35.49,10.28,57.08,12.88,8.43,1.02,38.82-.28,49.39-2.13h0Z"/>
    <path class="cls-2" d="M795.94,1357.43c-18.53-2.78-31.5-6.76-47.72-14.36-29.65-13.99-57.35-38.27-75.33-66.06-3.15-4.91-3.98-6.86-3.71-9.45l.28-3.34,130.65-75.42,130.65-75.42-.19-18.44c-.28-22.05-4.63-190.13-5.37-210.8l-.65-14.64h3.34c2.5,0,10.66,3.98,34.1,16.77,16.96,9.17,31.32,17.14,31.97,17.7.93.74,1.2,29.84,1.2,144.45,0,158.54.19,153.26-5.93,177.16-11.49,44.75-40.31,84.32-79.41,108.87-15.01,9.45-36.14,17.7-55.13,21.59-12.69,2.5-46.05,3.34-58.74,1.39h0Z"/>
    <path class="cls-2" d="M523.52,1241.89c-29-2.96-56.24-12.69-79.78-28.45-43.36-29.19-68.57-73.57-72.18-127.31-2.22-33.73,4.08-67.55,17.88-95.25l4.82-9.73h4.17c3.8,0,14.36,5.84,131.57,73.57,70.05,40.49,128.05,74.03,128.89,74.5,1.11.65,24.28-13.16,100.07-59.67,54.2-33.26,100.26-61.43,102.29-62.64,2.04-1.11,5-2.13,6.58-2.13h2.87l.65,9.08c.28,4.91.83,22.52,1.11,39.1l.56,30.11-123.51,71.25c-89.41,51.61-126.2,72.37-133.33,75.24-27.61,11.03-61.06,15.47-92.66,12.32Z"/>
    <path class="cls-2" d="M1051.67,1023.68v-151.87l-106.37-57.63-106.28-57.63-.19-3.52-.28-3.52,30.39-18.53c17.88-10.93,31.5-18.62,33.17-18.81,2.5-.28,21.96,10.56,123.7,69.4,66.44,38.36,123.14,71.16,125.92,72.92,11.95,7.6,28.72,23.07,39.19,36.23,20.66,26.04,33.17,54.48,38.27,87.19,2.13,13.25,2.13,42.44,0,55.13-6.02,36.04-20.29,64.49-45.03,89.51-26.13,26.5-58,43.09-95.9,50.03-5.56,1.02-16.12,2.13-23.35,2.41l-13.25.56v-151.87h0Z"/>
    <path class="cls-2" d="M532.6,992.46c-82.09-47.44-126.29-73.48-131.2-77.37-8.52-6.76-24-22.15-30.85-30.67-43.09-54.3-51.89-131.48-21.59-190.97,8.15-15.94,16.4-27.15,30.02-40.77,31.5-31.5,73.2-49.66,118.42-51.61l13.16-.56v303.73l106.56,57.82,106.56,57.82v6.67l-30.58,18.81c-23.44,14.36-31.32,18.72-33.63,18.72s-33.26-17.51-126.85-71.62h0Z"/>
    <path class="cls-2" d="M737.38,962.44l-41.51-23.91.09-50.5v-50.5l40.68-23.35c34.93-20.11,41.23-23.44,44.48-23.44s9.54,3.34,44.48,23.44l40.68,23.35v50.5l.09,50.5-40.86,23.63c-25.02,14.45-42.07,23.72-43.83,23.91-2.32.19-11.12-4.54-44.29-23.63h0Z"/>
    <path class="cls-2" d="M600.06,889.88c-16.77-9.17-30.85-16.96-31.32-17.42s-.83-64.12-.74-148.62c0-127.13.28-148.99,1.48-156.5,8.06-50.5,36.97-95.34,79.59-123.42,16.12-10.66,37.71-19.46,58.84-23.91,8.52-1.85,12.51-2.13,32.43-2.22,20.2,0,23.91.28,33.26,2.13,34.1,6.95,63.28,22.33,88.77,46.79,10.75,10.38,17.05,17.79,25.2,29.74,4.45,6.58,5.65,9.08,5.65,11.77,0,3.43-.19,3.61-8.52,8.52-4.73,2.78-63.47,36.6-130.46,75.24-66.99,38.64-122.22,70.51-122.59,70.88-.37.37-.09,24.37.74,53.37.74,29,2.04,76.72,2.78,106,.74,29.28,1.58,60.23,1.95,68.84l.56,15.47h-3.61c-2.78-.09-9.91-3.52-34.01-16.68h0Z"/>
    <path class="cls-2" d="M1030.82,720.69l-128.7-74.5-3.34,1.95c-1.76,1.11-47.72,29.19-102.02,62.54-80.89,49.57-99.42,60.6-102.11,60.6h-3.15l-.56-10.38c-.37-5.74-.83-23.35-1.2-39.19l-.56-28.72,123.05-70.88c67.64-39.01,126.57-72.46,131.02-74.31,40.31-17.23,91.08-19.27,133.8-5.28,51.89,16.96,92.56,58.28,107.11,108.87,9.54,32.89,9.27,72.74-.56,106.37-2.78,9.54-10.01,27.06-13.71,33.36-4.73,8.06,5.37,13.16-139.08-70.42h0Z"/>
  </g>
  <path class="cls-1" d="M801.49,1418.4c-31.6-3.8-53.09-9.91-79.59-22.7-24.65-11.86-42.9-24.55-62.36-43.27-16.86-16.31-32.52-36.23-42.9-54.39-1.39-2.5-2.69-4.73-2.78-4.91-.09-.09-1.3.19-2.59.65-4.45,1.76-24.55,5.65-36.51,7.04-14.08,1.76-41.97,2.04-55.87.46-76.35-8.34-143.06-51.33-178.55-114.99-13.34-24-22.15-49.48-26.87-78.2-2.59-15.94-2.32-56.8.46-73.11,5.1-29.28,14.92-57.73,28.17-81.26l4.45-8.06-7.23-7.6c-25.76-27.43-43.73-57.63-55.87-93.68-12.88-38.55-15.47-81.63-7.23-121.57,3.06-14.92,11.3-38.64,18.44-53.09,21.96-44.48,57.91-79.87,105.35-103.59,32.24-16.12,71.16-25.57,105.44-25.57h8.34l4.91-15.1c10.93-33.73,26.13-61.06,48.92-87.65,23.91-27.98,56.43-51.05,92.1-65.23,38.55-15.38,82.84-19.46,123.42-11.3,31.32,6.3,59.86,18.16,86.26,35.67,28.54,18.99,54.39,45.59,71.99,74.13,2.69,4.35,5.37,8.8,6.02,9.82l1.3,2.04,10.66-2.59c18.35-4.54,29-5.74,52.91-6.21,17.23-.37,24.83-.09,33.82,1.02,80.15,10.56,146.03,55.41,180.03,122.68,10.93,21.59,17.33,40.68,21.68,65.05,2.22,12.32,2.5,15.57,2.5,39.38.09,20.85-.28,28.08-1.58,36.6-4.63,28.91-15.57,60.69-29.19,84.78l-3.71,6.49,9.27,10.19c31.23,34.38,52.17,74.96,60.97,118.23,7.04,34.56,5.84,76.44-3.24,107.85-11.58,40.49-31.41,73.57-61.25,102.39-41.79,40.4-98.49,64.12-158.35,66.44l-14.92.56-4.35,13.71c-9.91,31.13-24.65,58.65-44.29,83.02-7.51,9.36-25.2,26.96-34.56,34.56-25.67,20.76-59.39,37.71-90.16,45.4-17.7,4.35-28.72,5.74-49.85,6.02-11.21.19-21.87.09-23.63-.09h0ZM851.9,1353.26c18.9-3.8,40.12-12.14,55.13-21.59,39.1-24.55,67.92-64.12,79.41-108.87,6.12-23.91,5.93-18.9,5.93-174.38,0-112.39-.28-140.93-1.2-141.67-1.67-1.39-62.91-34.56-63.19-34.28-.09.19.56,28.45,1.48,62.82.93,34.38,2.32,88.95,3.24,121.2.83,33.54,1.2,59.02.74,59.49s-59.21,34.47-130.55,75.61c-71.35,41.14-130.09,75.05-130.55,75.52-1.02.83,5,10.38,12.79,20.29,17.6,22.33,41.05,41.14,65.88,52.91,16.22,7.6,29.09,11.49,47.72,14.36,12.14,1.85,40.49,1.11,53.19-1.39h0ZM561.6,1239.2c18.16-1.85,36.04-6.12,51.8-12.42,7.13-2.87,43.92-23.63,133.33-75.24l123.51-71.25-.56-26.87c-.37-14.73-.83-31.13-1.11-36.41l-.56-9.45-3.89,2.13c-2.04,1.2-48.74,29.74-103.78,63.47l-99.88,61.34-130.18-75.15c-71.62-41.33-130.83-75.24-131.67-75.33-3.43-.19-16.22,30.39-20.01,48.09-3.98,18.25-5.28,34.84-4.17,52.63,3.89,60.32,38.36,111.37,92.94,137.78,29,13.99,61.99,19.83,94.23,16.68ZM1085.49,1169.71c19.83-3.52,34.28-8.43,53.28-18.16,28.35-14.55,54.76-40.21,69.68-67.73,13.34-24.55,19.46-49.29,19.46-78.11,0-41.33-13.25-78.85-39.75-112.21-9.45-11.77-25.3-26.87-36.88-34.84-5-3.43-247.4-143.25-248.41-143.25-1.58-.09-61.43,36.78-61.25,37.62.09.46,48.09,26.69,106.56,58.37l106.28,57.63v303.73l10.47-.56c5.74-.37,15.01-1.48,20.57-2.5h0ZM690.68,1042.31c16.59-10.19,30.21-18.81,30.21-19.09,0-.37-47.9-26.59-106.56-58.37l-106.56-57.82v-303.73l-10.47.56c-33.63,1.95-66.34,13.62-95.44,34.01-10.93,7.69-29.93,26.69-37.9,37.99-42.9,60.41-39.01,144.82,9.36,205.79,6.86,8.52,22.33,23.91,30.85,30.67,4.91,3.89,49.11,29.93,131.2,77.37,68.1,39.38,124.16,71.44,124.53,71.35.28-.09,14.18-8.52,30.76-18.72h0ZM839.21,949.74l24.37-13.99v-47.72l-.09-47.72-40.31-23.16c-22.15-12.69-41.14-23.16-42.07-23.16-1.02,0-19.92,10.47-42.07,23.16l-40.31,23.16v47.72l-.09,47.72,41.33,23.72,41.33,23.81,16.86-9.73c9.17-5.37,27.7-16.03,41.05-23.81h0ZM634.25,892.02c-.28-6.58-1.39-44.57-2.41-84.6-.93-40.03-2.22-86.91-2.69-104.24-.46-17.33-.93-34.01-.93-37.16v-5.65l44.29-25.57c168.54-97.2,216.63-124.99,217.37-125.74,1.02-1.02-6.67-12.88-15.01-23.16-7.04-8.8-22.61-23.91-31.87-30.76-21.31-16.12-45.96-27.15-72.18-32.43-9.17-1.85-13.16-2.13-30.48-2.04-22.7,0-30.67,1.3-50.41,7.88-61.25,20.38-107.11,75.61-117.77,141.67-1.2,7.6-1.39,28.35-1.39,153.72,0,79.78.37,145.38.74,145.75,1.02,1.02,61.52,34.01,62.54,34.1.37,0,.46-5.28.19-11.77h0ZM1167.12,788.33c3.71-6.3,10.93-23.81,13.71-33.36,7.51-25.57,9.45-56.8,5.19-81.26-13.25-75.42-73.2-129.07-152.88-136.95-27.15-2.69-61.25,2.69-87.1,13.81-5.56,2.41-250.36,142.51-253.79,145.29-.56.46,1.58,71.81,2.13,72.37.37.37,191.06-115.91,203.29-124.07l3.98-2.59,130.37,75.42c71.72,41.51,130.83,75.52,131.48,75.52.65.09,2.22-1.85,3.61-4.17Z"/>
</svg>