<?xml version="1.0" encoding="utf-8"?>
<!DOCTYPE svg PUBLIC "-//W3C//DTD SVG 1.0//EN" "http://www.w3.org/TR/2001/REC-SVG-20010904/DTD/svg10.dtd">
<svg version="1.0" xmlns="http://www.w3.org/2000/svg" width="1688px" height="1920px" viewBox="0 0 1688 1920" preserveAspectRatio="xMidYMid meet">
 <g fill="#0ea982">
  <path d="M829.7 1918 c-8.4 -1.3 -18.2 -4.5 -26.2 -8.3 -7.8 -3.8 -752.9 -433.8 -761.5 -439.5 -14.4 -9.5 -28.9 -28.1 -35 -44.9 -6.5 -18 -6 18.1 -6 -465.3 0 -483.4 -0.5 -447.3 6 -465.3 5.9 -16.2 18 -32.4 31.8 -42.5 3.7 -2.7 29 -17.7 56.2 -33.4 27.2 -15.7 196.2 -113.3 375.5 -216.8 179.3 -103.6 329.6 -190 334 -192.1 13.8 -6.5 22.7 -8.4 40 -8.3 17.1 0.1 25.6 1.9 38.3 7.9 4.1 1.9 177.5 101.7 385.4 221.7 267.5 154.5 380 219.9 384.6 223.8 16 13.4 26.5 30.3 31.8 51 1.9 7.3 1.9 18 1.9 454 0 436 0 446.7 -1.9 454 -5.3 20.7 -15.8 37.6 -31.8 51 -4.6 3.9 -117 69.3 -384.6 223.8 -207.9 120 -381.3 219.8 -385.4 221.7 -10.9 5.2 -21.4 7.5 -35.3 8 -6.6 0.2 -14.6 0 -17.8 -0.5z m92.6 -390.9 c25.8 -4.5 46.5 -11.2 68.7 -22.2 26.2 -13 47.4 -28.2 68 -48.9 30.9 -30.9 52 -65.8 65.7 -108.9 l4.7 -14.8 16.1 -0.6 c54.4 -2.1 105.2 -20.1 148.5 -52.6 74.8 -56.1 110.5 -149.3 92 -240 -9.5 -46.8 -32.3 -90.9 -65.9 -127.6 -7.7 -8.4 -10 -11.7 -10.1 -13.9 0 -1.6 2.3 -6.9 5.4 -12.5 14.2 -25.2 25.4 -58.3 30.3 -89.3 1.4 -8.8 1.8 -16.8 1.7 -36.3 0 -22.4 -0.3 -26.5 -2.7 -39.5 -4.7 -26.3 -11.6 -46.9 -23.4 -70.2 -36.7 -72.6 -107.7 -121 -194.3 -132.4 -9.7 -1.2 -17.3 -1.5 -34 -1.1 -23.1 0.6 -34.1 2 -54.2 6.8 -7 1.7 -13.7 2.9 -14.9 2.7 -1.6 -0.2 -4 -3.3 -8.7 -10.8 -20.2 -32.8 -47.4 -61 -78.9 -82 -43.7 -29 -96.1 -44.6 -143.8 -42.7 -74 3 -146.3 43.2 -191.4 106.3 -16.1 22.6 -28.2 47 -37.3 75.1 l-5.3 16.3 -9 0 c-37 0 -79 10.2 -113.8 27.6 -61.9 31 -105.7 80.4 -126.1 142.4 -13.9 42.2 -16.1 79.1 -7.5 122.4 9.5 47.8 33.5 93.7 68.2 130.6 9.4 10.1 9.5 11 2.9 22.9 -14.3 25.4 -24.9 56.1 -30.4 87.7 -3 17.5 -3.3 56 -0.5 72.9 5.1 31 14.6 58.5 29 84.4 38.5 68.9 111.1 115.6 193.5 124.2 14.3 1.5 48.2 0.7 61.6 -1.5 5.4 -0.9 14.8 -2.8 21 -4.2 6.1 -1.5 12.9 -2.9 15.1 -3.1 3.9 -0.4 4 -0.3 6.9 4.9 5 9.1 18.1 27.9 26.4 37.8 16.8 20.1 43.2 43 64.3 55.8 11.4 6.8 34.9 18.1 47.3 22.7 17.1 6.3 38.3 11.1 61.6 13.9 9.1 1.1 41.9 -0.3 53.3 -2.3z"/>
  <path d="M860 1466.6 c-20 -3 -34 -7.3 -51.5 -15.5 -32 -15.1 -61.9 -41.3 -81.3 -71.3 -3.4 -5.3 -4.3 -7.4 -4 -10.2 l0.3 -3.6 141 -81.4 141 -81.4 -0.2 -19.9 c-0.3 -23.8 -5 -205.2 -5.8 -227.5 l-0.7 -15.8 3.6 0 c2.7 0 11.5 4.3 36.8 18.1 18.3 9.9 33.8 18.5 34.5 19.1 1 0.8 1.3 32.2 1.3 155.9 0 171.1 0.2 165.4 -6.4 191.2 -12.4 48.3 -43.5 91 -85.7 117.5 -16.2 10.2 -39 19.1 -59.5 23.3 -13.7 2.7 -49.7 3.6 -63.4 1.5z"/>
  <path d="M566 1341.9 c-31.3 -3.2 -60.7 -13.7 -86.1 -30.7 -46.8 -31.5 -74 -79.4 -77.9 -137.4 -2.4 -36.4 4.4 -72.9 19.3 -102.8 l5.2 -10.5 4.5 0 c4.1 0 15.5 6.3 142 79.4 75.6 43.7 138.2 79.9 139.1 80.4 1.2 0.7 26.2 -14.2 108 -64.4 58.5 -35.9 108.2 -66.3 110.4 -67.6 2.2 -1.2 5.4 -2.3 7.1 -2.3 l3.1 0 0.7 9.8 c0.3 5.3 0.9 24.3 1.2 42.2 l0.6 32.5 -133.3 76.9 c-96.5 55.7 -136.2 78.1 -143.9 81.2 -29.8 11.9 -65.9 16.7 -100 13.3z"/>
  <path d="M1136 1106.4 l0 -163.9 -114.8 -62.2 -114.7 -62.2 -0.2 -3.8 -0.3 -3.8 32.8 -20 c19.3 -11.8 34 -20.1 35.8 -20.3 2.7 -0.3 23.7 11.4 133.5 74.9 71.7 41.4 132.9 76.8 135.9 78.7 12.9 8.2 31 24.9 42.3 39.1 22.3 28.1 35.8 58.8 41.3 94.1 2.3 14.3 2.3 45.8 0 59.5 -6.5 38.9 -21.9 69.6 -48.6 96.6 -28.2 28.6 -62.6 46.5 -103.5 54 -6 1.1 -17.4 2.3 -25.2 2.6 l-14.3 0.6 0 -163.9z"/>
  <path d="M575.8 1072.7 c-88.6 -51.2 -136.3 -79.3 -141.6 -83.5 -9.2 -7.3 -25.9 -23.9 -33.3 -33.1 -46.5 -58.6 -56 -141.9 -23.3 -206.1 8.8 -17.2 17.7 -29.3 32.4 -44 34 -34 79 -53.6 127.8 -55.7 l14.2 -0.6 0 163.9 0 163.9 115 62.4 115 62.4 0 3.6 0 3.6 -33 20.3 c-25.3 15.5 -33.8 20.2 -36.3 20.2 -2.4 0 -35.9 -18.9 -136.9 -77.3z"/>
  <path d="M796.8 1040.3 l-44.8 -25.8 0.1 -54.5 0 -54.5 43.9 -25.2 c37.7 -21.7 44.5 -25.3 48 -25.3 3.5 0 10.3 3.6 48 25.3 l43.9 25.2 0 54.5 0.1 54.5 -44.1 25.5 c-27 15.6 -45.4 25.6 -47.3 25.8 -2.5 0.2 -12 -4.9 -47.8 -25.5z"/>
  <path d="M648.6 962 c-18.1 -9.9 -33.3 -18.3 -33.8 -18.8 -0.5 -0.5 -0.9 -69.2 -0.8 -160.4 0 -137.2 0.3 -160.8 1.6 -168.9 8.7 -54.5 39.9 -102.9 85.9 -133.2 17.4 -11.5 40.7 -21 63.5 -25.8 9.2 -2 13.5 -2.3 35 -2.4 21.8 0 25.8 0.3 35.9 2.3 36.8 7.5 68.3 24.1 95.8 50.5 11.6 11.2 18.4 19.2 27.2 32.1 4.8 7.1 6.1 9.8 6.1 12.7 0 3.7 -0.2 3.9 -9.2 9.2 -5.1 3 -68.5 39.5 -140.8 81.2 -72.3 41.7 -131.9 76.1 -132.3 76.5 -0.4 0.4 -0.1 26.3 0.8 57.6 0.8 31.3 2.2 82.8 3 114.4 0.8 31.6 1.7 65 2.1 74.3 l0.6 16.7 -3.9 0 c-3 -0.1 -10.7 -3.8 -36.7 -18z"/>
  <path d="M1113.5 779.4 l-138.9 -80.4 -3.6 2.1 c-1.9 1.2 -51.5 31.5 -110.1 67.5 -87.3 53.5 -107.3 65.4 -110.2 65.4 l-3.4 0 -0.6 -11.2 c-0.4 -6.2 -0.9 -25.2 -1.3 -42.3 l-0.6 -31 132.8 -76.5 c73 -42.1 136.6 -78.2 141.4 -80.2 43.5 -18.6 98.3 -20.8 144.4 -5.7 56 18.3 99.9 62.9 115.6 117.5 10.3 35.5 10 78.5 -0.6 114.8 -3 10.3 -10.8 29.2 -14.8 36 -5.1 8.7 5.8 14.2 -150.1 -76z"/>
 </g>
 <g fill="#ffffff">
  <path d="M866 1532.4 c-34.1 -4.1 -57.3 -10.7 -85.9 -24.5 -26.6 -12.8 -46.3 -26.5 -67.3 -46.7 -18.2 -17.6 -35.1 -39.1 -46.3 -58.7 -1.5 -2.7 -2.9 -5.1 -3 -5.3 -0.1 -0.1 -1.4 0.2 -2.8 0.7 -4.8 1.9 -26.5 6.1 -39.4 7.6 -15.2 1.9 -45.3 2.2 -60.3 0.5 -82.4 -9 -154.4 -55.4 -192.7 -124.1 -14.4 -25.9 -23.9 -53.4 -29 -84.4 -2.8 -17.2 -2.5 -61.3 0.5 -78.9 5.5 -31.6 16.1 -62.3 30.4 -87.7 l4.8 -8.7 -7.8 -8.2 c-27.8 -29.6 -47.2 -62.2 -60.3 -101.1 -13.9 -41.6 -16.7 -88.1 -7.8 -131.2 3.3 -16.1 12.2 -41.7 19.9 -57.3 23.7 -48 62.5 -86.2 113.7 -111.8 34.8 -17.4 76.8 -27.6 113.8 -27.6 l9 0 5.3 -16.3 c11.8 -36.4 28.2 -65.9 52.8 -94.6 25.8 -30.2 60.9 -55.1 99.4 -70.4 41.6 -16.6 89.4 -21 133.2 -12.2 33.8 6.8 64.6 19.6 93.1 38.5 30.8 20.5 58.7 49.2 77.7 80 2.9 4.7 5.8 9.5 6.5 10.6 l1.4 2.2 11.5 -2.8 c19.8 -4.9 31.3 -6.2 57.1 -6.7 18.6 -0.4 26.8 -0.1 36.5 1.1 86.5 11.4 157.6 59.8 194.3 132.4 11.8 23.3 18.7 43.9 23.4 70.2 2.4 13.3 2.7 16.8 2.7 42.5 0.1 22.5 -0.3 30.3 -1.7 39.5 -5 31.2 -16.8 65.5 -31.5 91.5 l-4 7 10 11 c33.7 37.1 56.3 80.9 65.8 127.6 7.6 37.3 6.3 82.5 -3.5 116.4 -12.5 43.7 -33.9 79.4 -66.1 110.5 -45.1 43.6 -106.3 69.2 -170.9 71.7 l-16.1 0.6 -4.7 14.8 c-10.7 33.6 -26.6 63.3 -47.8 89.6 -8.1 10.1 -27.2 29.1 -37.3 37.3 -27.7 22.4 -64.1 40.7 -97.3 49 -19.1 4.7 -31 6.2 -53.8 6.5 -12.1 0.2 -23.6 0.1 -25.5 -0.1z m54.4 -70.3 c20.4 -4.1 43.3 -13.1 59.5 -23.3 42.2 -26.5 73.3 -69.2 85.7 -117.5 6.6 -25.8 6.4 -20.4 6.4 -188.2 0 -121.3 -0.3 -152.1 -1.3 -152.9 -1.8 -1.5 -67.9 -37.3 -68.2 -37 -0.1 0.2 0.6 30.7 1.6 67.8 1 37.1 2.5 96 3.5 130.8 0.9 36.2 1.3 63.7 0.8 64.2 -0.5 0.5 -63.9 37.2 -140.9 81.6 -77 44.4 -140.4 81 -140.9 81.5 -1.1 0.9 5.4 11.2 13.8 21.9 19 24.1 44.3 44.4 71.1 57.1 17.5 8.2 31.4 12.4 51.5 15.5 13.1 2 43.7 1.2 57.4 -1.5z m-313.3 -123.1 c19.6 -2 38.9 -6.6 55.9 -13.4 7.7 -3.1 47.4 -25.5 143.9 -81.2 l133.3 -76.9 -0.6 -29 c-0.4 -15.9 -0.9 -33.6 -1.2 -39.3 l-0.6 -10.2 -4.2 2.3 c-2.2 1.3 -52.6 32.1 -112 68.5 l-107.8 66.2 -140.5 -81.1 c-77.3 -44.6 -141.2 -81.2 -142.1 -81.3 -3.7 -0.2 -17.5 32.8 -21.6 51.9 -4.3 19.7 -5.7 37.6 -4.5 56.8 4.2 65.1 41.4 120.2 100.3 148.7 31.3 15.1 66.9 21.4 101.7 18z m565.4 -75 c21.4 -3.8 37 -9.1 57.5 -19.6 30.6 -15.7 59.1 -43.4 75.2 -73.1 14.4 -26.5 21 -53.2 21 -84.3 0 -44.6 -14.3 -85.1 -42.9 -121.1 -10.2 -12.7 -27.3 -29 -39.8 -37.6 -5.4 -3.7 -267 -154.6 -268.1 -154.6 -1.7 -0.1 -66.3 39.7 -66.1 40.6 0.1 0.5 51.9 28.8 115 63 l114.7 62.2 0 163.9 0 163.9 11.3 -0.6 c6.2 -0.4 16.2 -1.6 22.2 -2.7z m-426.1 -137.5 c17.9 -11 32.6 -20.3 32.6 -20.6 0 -0.4 -51.7 -28.7 -115 -63 l-115 -62.4 0 -163.9 0 -163.9 -11.3 0.6 c-36.3 2.1 -71.6 14.7 -103 36.7 -11.8 8.3 -32.3 28.8 -40.9 41 -46.3 65.2 -42.1 156.3 10.1 222.1 7.4 9.2 24.1 25.8 33.3 33.1 5.3 4.2 53 32.3 141.6 83.5 73.5 42.5 134 77.1 134.4 77 0.3 -0.1 15.3 -9.2 33.2 -20.2z m160.3 -99.9 l26.3 -15.1 0 -51.5 -0.1 -51.5 -43.5 -25 c-23.9 -13.7 -44.4 -25 -45.4 -25 -1.1 0 -21.5 11.3 -45.4 25 l-43.5 25 0 51.5 -0.1 51.5 44.6 25.6 44.6 25.7 18.2 -10.5 c9.9 -5.8 29.9 -17.3 44.3 -25.7z m-221.2 -62.3 c-0.3 -7.1 -1.5 -48.1 -2.6 -91.3 -1 -43.2 -2.4 -93.8 -2.9 -112.5 -0.5 -18.7 -1 -36.7 -1 -40.1 l0 -6.1 47.8 -27.6 c181.9 -104.9 233.8 -134.9 234.6 -135.7 1.1 -1.1 -7.2 -13.9 -16.2 -25 -7.6 -9.5 -24.4 -25.8 -34.4 -33.2 -23 -17.4 -49.6 -29.3 -77.9 -35 -9.9 -2 -14.2 -2.3 -32.9 -2.2 -24.5 0 -33.1 1.4 -54.4 8.5 -66.1 22 -115.6 81.6 -127.1 152.9 -1.3 8.2 -1.5 30.6 -1.5 165.9 0 86.1 0.4 156.9 0.8 157.3 1.1 1.1 66.4 36.7 67.5 36.8 0.4 0 0.5 -5.7 0.2 -12.7z m575.1 -111.9 c4 -6.8 11.8 -25.7 14.8 -36 8.1 -27.6 10.2 -61.3 5.6 -87.7 -14.3 -81.4 -79 -139.3 -165 -147.8 -29.3 -2.9 -66.1 2.9 -94 14.9 -6 2.6 -270.2 153.8 -273.9 156.8 -0.6 0.5 1.7 77.5 2.3 78.1 0.4 0.4 206.2 -125.1 219.4 -133.9 l4.3 -2.8 140.7 81.4 c77.4 44.8 141.2 81.5 141.9 81.5 0.7 0.1 2.4 -2 3.9 -4.5z"/>
 </g>
</svg>