<?xml version="1.0" encoding="UTF-8"?>
<svg id="_图层_1" data-name="图层 1" xmlns="http://www.w3.org/2000/svg" viewBox="0 0 1773.27 1773.62">
  <defs>
    <style>
      .cls-1 {
        fill: #cd3a64;
      }

      .cls-1, .cls-2, .cls-3, .cls-4, .cls-5, .cls-6, .cls-7, .cls-8, .cls-9, .cls-10, .cls-11, .cls-12, .cls-13, .cls-14, .cls-15, .cls-16, .cls-17, .cls-18, .cls-19, .cls-20, .cls-21, .cls-22, .cls-23, .cls-24, .cls-25, .cls-26, .cls-27, .cls-28, .cls-29, .cls-30, .cls-31, .cls-32, .cls-33, .cls-34, .cls-35, .cls-36, .cls-37, .cls-38, .cls-39, .cls-40, .cls-41, .cls-42, .cls-43, .cls-44, .cls-45, .cls-46, .cls-47, .cls-48, .cls-49, .cls-50, .cls-51, .cls-52, .cls-53, .cls-54, .cls-55, .cls-56, .cls-57, .cls-58, .cls-59, .cls-60, .cls-61, .cls-62, .cls-63, .cls-64, .cls-65, .cls-66, .cls-67, .cls-68, .cls-69, .cls-70, .cls-71, .cls-72, .cls-73, .cls-74, .cls-75, .cls-76, .cls-77, .cls-78, .cls-79, .cls-80, .cls-81, .cls-82, .cls-83, .cls-84, .cls-85, .cls-86, .cls-87, .cls-88, .cls-89, .cls-90, .cls-91, .cls-92, .cls-93, .cls-94, .cls-95, .cls-96, .cls-97, .cls-98, .cls-99, .cls-100, .cls-101, .cls-102, .cls-103, .cls-104, .cls-105, .cls-106, .cls-107, .cls-108, .cls-109, .cls-110, .cls-111, .cls-112, .cls-113, .cls-114, .cls-115, .cls-116, .cls-117, .cls-118, .cls-119, .cls-120, .cls-121, .cls-122, .cls-123, .cls-124, .cls-125, .cls-126, .cls-127, .cls-128, .cls-129, .cls-130, .cls-131, .cls-132, .cls-133, .cls-134, .cls-135, .cls-136, .cls-137, .cls-138, .cls-139, .cls-140, .cls-141, .cls-142, .cls-143, .cls-144, .cls-145, .cls-146, .cls-147, .cls-148, .cls-149, .cls-150, .cls-151, .cls-152, .cls-153, .cls-154, .cls-155, .cls-156, .cls-157, .cls-158, .cls-159, .cls-160, .cls-161, .cls-162, .cls-163, .cls-164, .cls-165, .cls-166, .cls-167, .cls-168, .cls-169, .cls-170, .cls-171, .cls-172, .cls-173, .cls-174, .cls-175, .cls-176, .cls-177, .cls-178, .cls-179, .cls-180, .cls-181, .cls-182, .cls-183, .cls-184, .cls-185, .cls-186, .cls-187, .cls-188, .cls-189, .cls-190, .cls-191, .cls-192, .cls-193, .cls-194, .cls-195, .cls-196, .cls-197, .cls-198, .cls-199, .cls-200, .cls-201, .cls-202, .cls-203, .cls-204, .cls-205, .cls-206, .cls-207, .cls-208 {
        stroke-width: 0px;
      }

      .cls-2 {
        fill: #a22747;
      }

      .cls-3 {
        fill: #ce3564;
      }

      .cls-4 {
        fill: #040301;
      }

      .cls-5 {
        fill: #34050a;
      }

      .cls-6 {
        fill: #7abcbf;
      }

      .cls-7 {
        fill: #140303;
      }

      .cls-8 {
        fill: #a54863;
      }

      .cls-9 {
        fill: #7cbec3;
      }

      .cls-10 {
        fill: #f61d58;
      }

      .cls-11 {
        fill: #effcf9;
      }

      .cls-12 {
        fill: #f7f7f8;
      }

      .cls-13 {
        fill: #e21f53;
      }

      .cls-14 {
        fill: #ca3d64;
      }

      .cls-15 {
        fill: #253d3d;
      }

      .cls-16 {
        fill: #c42952;
      }

      .cls-17 {
        fill: #db2757;
      }

      .cls-18 {
        fill: #e12857;
      }

      .cls-19 {
        fill: #7fb3ae;
      }

      .cls-20 {
        fill: #dd2252;
      }

      .cls-21 {
        fill: #d82f61;
      }

      .cls-22 {
        fill: #000;
      }

      .cls-23 {
        fill: #f4205b;
      }

      .cls-24 {
        fill: #73b3b5;
      }

      .cls-25 {
        fill: #f2fafb;
      }

      .cls-26 {
        fill: #e22953;
      }

      .cls-27 {
        fill: #f5f3f2;
      }

      .cls-28 {
        fill: #e9fcfb;
      }

      .cls-29 {
        fill: #cf2f5d;
      }

      .cls-30 {
        fill: #85bbbe;
      }

      .cls-31 {
        fill: #79bcbc;
      }

      .cls-32 {
        fill: #0e0707;
      }

      .cls-33 {
        fill: #f8fafa;
      }

      .cls-34 {
        fill: #f4eff2;
      }

      .cls-35 {
        fill: #f71e56;
      }

      .cls-36 {
        fill: #270607;
      }

      .cls-37 {
        fill: #f9fcfb;
      }

      .cls-38 {
        fill: #f71d5a;
      }

      .cls-39 {
        fill: #b82f51;
      }

      .cls-40 {
        fill: #d72b59;
      }

      .cls-41 {
        fill: #ed2357;
      }

      .cls-42 {
        fill: #150204;
      }

      .cls-43 {
        fill: #6abacc;
      }

      .cls-44 {
        fill: #66bfc5;
      }

      .cls-45 {
        fill: #ea2458;
      }

      .cls-46 {
        fill: #f22056;
      }

      .cls-47 {
        fill: #6eb8c0;
      }

      .cls-48 {
        fill: #dc2350;
      }

      .cls-49 {
        fill: #faf0f5;
      }

      .cls-50 {
        fill: #170205;
      }

      .cls-51 {
        fill: #f51d5b;
      }

      .cls-52 {
        fill: #2e0408;
      }

      .cls-53 {
        fill: #f12259;
      }

      .cls-54 {
        fill: #c32853;
      }

      .cls-55 {
        fill: #ef205a;
      }

      .cls-56 {
        fill: #d23263;
      }

      .cls-57 {
        fill: #c7f4f2;
      }

      .cls-58 {
        fill: #932b49;
      }

      .cls-59 {
        fill: #020f12;
      }

      .cls-60 {
        fill: #6ebcc2;
      }

      .cls-61 {
        fill: #6db1b1;
      }

      .cls-62 {
        fill: #60bebb;
      }

      .cls-63 {
        fill: #e61e52;
      }

      .cls-64 {
        fill: #fc1c56;
      }

      .cls-65 {
        fill: #60c3d0;
      }

      .cls-66 {
        fill: #e82558;
      }

      .cls-67 {
        fill: #ee2356;
      }

      .cls-68 {
        fill: #f9fefb;
      }

      .cls-69 {
        fill: #c62a55;
      }

      .cls-70 {
        fill: #7ebcbe;
      }

      .cls-71 {
        fill: #dc2e5d;
      }

      .cls-72 {
        fill: #2d050c;
      }

      .cls-73 {
        fill: #faebf2;
      }

      .cls-74 {
        fill: #8db4b0;
      }

      .cls-75 {
        fill: #0c0c0c;
      }

      .cls-76 {
        fill: #7dbcc5;
      }

      .cls-77 {
        fill: #350a0e;
      }

      .cls-78 {
        fill: #2f050a;
      }

      .cls-79 {
        fill: #e11e51;
      }

      .cls-80 {
        fill: #b53152;
      }

      .cls-81 {
        fill: #f8fbfb;
      }

      .cls-82 {
        fill: #eafdf7;
      }

      .cls-83 {
        fill: #f9fef9;
      }

      .cls-84 {
        fill: #170001;
      }

      .cls-85 {
        fill: #73b9be;
      }

      .cls-86 {
        fill: #f61d59;
      }

      .cls-87 {
        fill: #fafcfa;
      }

      .cls-88 {
        fill: #df2a5b;
      }

      .cls-89 {
        fill: #050505;
      }

      .cls-90 {
        fill: #ba294e;
      }

      .cls-91 {
        fill: #500914;
      }

      .cls-92 {
        fill: #66bfc2;
      }

      .cls-93 {
        fill: #130102;
      }

      .cls-94 {
        fill: #da2352;
      }

      .cls-95 {
        fill: #e22a5d;
      }

      .cls-96 {
        fill: #5ec4c4;
      }

      .cls-97 {
        fill: #170204;
      }

      .cls-98 {
        fill: #d12758;
      }

      .cls-99 {
        fill: #eefcfa;
      }

      .cls-100 {
        fill: #caeeef;
      }

      .cls-101 {
        fill: #f22157;
      }

      .cls-102 {
        fill: #f6f9f8;
      }

      .cls-103 {
        fill: #080808;
      }

      .cls-104 {
        fill: #ac2d4e;
      }

      .cls-105 {
        fill: #f9fafb;
      }

      .cls-106 {
        fill: #04090e;
      }

      .cls-107 {
        fill: #def7f8;
      }

      .cls-108 {
        fill: #290407;
      }

      .cls-109 {
        fill: #e71d53;
      }

      .cls-110 {
        fill: #ea2059;
      }

      .cls-111 {
        fill: #f91c55;
      }

      .cls-112 {
        fill: #050006;
      }

      .cls-113 {
        fill: #051210;
      }

      .cls-114 {
        fill: #81bbc3;
      }

      .cls-115 {
        fill: #290408;
      }

      .cls-116 {
        fill: #6fa8b0;
      }

      .cls-117 {
        fill: #c74167;
      }

      .cls-118 {
        fill: #a92a4c;
      }

      .cls-119 {
        fill: #d02b58;
      }

      .cls-120 {
        fill: #f6fefe;
      }

      .cls-121 {
        fill: #ecfafa;
      }

      .cls-122 {
        fill: #041110;
      }

      .cls-123 {
        fill: #f9f5f6;
      }

      .cls-124 {
        fill: #e5fafa;
      }

      .cls-125 {
        fill: #6dbcc0;
      }

      .cls-126 {
        fill: #e42b61;
      }

      .cls-127 {
        fill: #69bdc9;
      }

      .cls-128 {
        fill: #190002;
      }

      .cls-129 {
        fill: #f91e5a;
      }

      .cls-130 {
        fill: #5cc4c9;
      }

      .cls-131 {
        fill: #c82555;
      }

      .cls-132 {
        fill: #6abbbd;
      }

      .cls-133 {
        fill: #d43264;
      }

      .cls-134 {
        fill: #b93053;
      }

      .cls-135 {
        fill: #79bbbe;
      }

      .cls-136 {
        fill: #75b4bc;
      }

      .cls-137 {
        fill: #7bbcc6;
      }

      .cls-138 {
        fill: #73babb;
      }

      .cls-139 {
        fill: #d33662;
      }

      .cls-140 {
        fill: #ec2358;
      }

      .cls-141 {
        fill: #040b10;
      }

      .cls-142 {
        fill: #c66b83;
      }

      .cls-143 {
        fill: #5fc4c3;
      }

      .cls-144 {
        fill: #d3436b;
      }

      .cls-145 {
        fill: #e5f9fb;
      }

      .cls-146 {
        fill: #d52353;
      }

      .cls-147 {
        fill: #71b6b7;
      }

      .cls-148 {
        fill: #f3fefd;
      }

      .cls-149 {
        fill: #3a040b;
      }

      .cls-150 {
        fill: #d1446b;
      }

      .cls-151 {
        fill: #150205;
      }

      .cls-152 {
        fill: #de2555;
      }

      .cls-153 {
        fill: #040204;
      }

      .cls-154 {
        fill: #e7255a;
      }

      .cls-155 {
        fill: #e4f8fa;
      }

      .cls-156 {
        fill: #66bfc6;
      }

      .cls-157 {
        fill: #2b0106;
      }

      .cls-158 {
        fill: #e8fafb;
      }

      .cls-159 {
        fill: #da2b5c;
      }

      .cls-160 {
        fill: #fbf8fa;
      }

      .cls-161 {
        fill: #77b1b4;
      }

      .cls-162 {
        fill: #7bbaba;
      }

      .cls-163 {
        fill: #0e0202;
      }

      .cls-164 {
        fill: #dd2151;
      }

      .cls-165 {
        fill: #d63363;
      }

      .cls-166 {
        fill: #be2d51;
      }

      .cls-167 {
        fill: #7cbdbd;
      }

      .cls-168 {
        fill: #faf9fc;
      }

      .cls-169 {
        fill: #f71c58;
      }

      .cls-170 {
        fill: #d1e8e8;
      }

      .cls-171 {
        fill: #e9255a;
      }

      .cls-172 {
        fill: #73b2b3;
      }

      .cls-173 {
        fill: #eefef8;
      }

      .cls-174 {
        fill: #0b0807;
      }

      .cls-175 {
        fill: #5fc3c9;
      }

      .cls-176 {
        fill: #b63156;
      }

      .cls-177 {
        fill: #a72a4a;
      }

      .cls-178 {
        fill: #f3fbfb;
      }

      .cls-179 {
        fill: #da2955;
      }

      .cls-180 {
        fill: #da2c58;
      }

      .cls-181 {
        fill: #030406;
      }

      .cls-182 {
        fill: #dd2a59;
      }

      .cls-183 {
        fill: #7bbdbf;
      }

      .cls-184 {
        fill: #e8245a;
      }

      .cls-185 {
        fill: #030e12;
      }

      .cls-186 {
        fill: #74aeb1;
      }

      .cls-187 {
        fill: #ce4067;
      }

      .cls-188 {
        fill: #c02f54;
      }

      .cls-189 {
        fill: #94445c;
      }

      .cls-190 {
        fill: #081215;
      }

      .cls-191 {
        fill: #63c1c5;
      }

      .cls-192 {
        fill: #fcf4f4;
      }

      .cls-193 {
        fill: #cb2a53;
      }

      .cls-194 {
        fill: #f9f8f7;
      }

      .cls-195 {
        fill: #f91b5a;
      }

      .cls-196 {
        fill: #65bec4;
      }

      .cls-197 {
        fill: #cb2f58;
      }

      .cls-198 {
        fill: #140200;
      }

      .cls-199 {
        fill: #7fb8c1;
      }

      .cls-200 {
        fill: #75c3c8;
      }

      .cls-201 {
        fill: #73afad;
      }

      .cls-202 {
        fill: #72bac1;
      }

      .cls-203 {
        fill: #b7314f;
      }

      .cls-204 {
        fill: #f11f58;
      }

      .cls-205 {
        fill: #fefefe;
      }

      .cls-206 {
        fill: #62c0c5;
      }

      .cls-207 {
        fill: #e9fafa;
      }

      .cls-208 {
        fill: #ecfefc;
      }
    </style>
  </defs>
  <path class="cls-22" d="M68.56,215.96c12.26-21.9,27.14-41.87,44.45-60.04,6.71-.67,6.22-7.85,10.06-11.11C185.77,76.35,263.09,33.1,353.06,11.9,386.77,3.95,421.07.4,455.69.4c289.97-.05,579.95-1.11,869.91.44,124.13.66,230.42,48.21,318.15,136.39,4.4,4.42,9.2,8.67,10.54,15.25-1.01,1.08-2.44,1.29-3.72,1.8,1.39-.31,2.69-.83,3.74-1.84.85-.56,1.54-.4,2.08.46,4.61,6.2.34,20.53,15.57,17.02,48.29,57.56,77.87,123.91,92.58,197.22,6.93,34.52,8.74,69.44,8.73,104.57-.11,283.59.02,567.19-.09,850.78-.09,222.93-168.29,415.56-389.13,446.09-23.86,3.3-47.76,5.04-71.84,5.03-286.08-.06-572.17,0-858.25-.05-229.44-.04-423.31-171.94-450.57-399.73-2.14-17.87-3.17-35.97-3.18-53.97-.19-288.6-.38-577.21.03-865.81.1-73.06,15.75-142.8,51.03-207.45,6-3.31,6.97-9.4,8.42-15.22l-.02.04c.88-1.14,2.05-3.09,3-2.87,10.29,2.41,5.49-4.53,5.33-8.48-.06-1.44-.21-2.82.56-4.12Z"/>
  <path class="cls-103" d="M1671.96,169.93c1.08,7.85-6.21,2.17-8.19,5.07-2.9-5.11-10.5-7.4-9.08-15.07.44-2.37,1.13-4.68,1.71-7.03,7.34,3.71,11.4,10.42,15.57,17.02Z"/>
  <path class="cls-75" d="M68.56,215.96c2.06,5.11,4.11,10.21,6.23,15.47h-15.11c1.4-6.05,4.71-11.01,8.89-15.47Z"/>
  <path class="cls-75" d="M59.7,231.39c2.52,8.02,1.3,13.98-8.42,15.22,1.76-5.66,4.03-11.03,8.42-15.22Z"/>
  <path class="cls-75" d="M123.07,144.81c-1.87,5.05.13,13.6-10.06,11.11,2.25-4.7,5.73-8.3,10.06-11.11Z"/>
  <path class="cls-205" d="M463.48,1370.82c-1.99-2.49-3.98-4.99-5.97-7.48-16.38-17.21-28.88-37.06-39.47-58.2-1.99-4.05-3.47-8.28-4.38-12.71-4.57-19.3-16.43-36.23-18.36-56.39.02-3.61-2.28-6.37-3.42-9.56-3.6-10.06-3.42-19.04,6.76-25.75,5.3-3.5,8.58-9.33,13.39-13.48,5.91-20.6.53-41.68,2.95-62.43-2.49,20.78,3.05,41.89-3.05,62.53-9.08,5.99-15.97,1.98-15.48-7.12,1.2-22.16-8.11-43.29-2.55-66.3,4.7-19.43,1.6-40.48.74-64.64-4.49,8.57-3.91,18.92-11.53,17.54-7.34-1.33-1.26-10.62-3.94-15.78-.91-1.75-.98-3.85-1.26-5.82-1.15-13.72,3.35-26.6,5.89-39.76.29-1.49.75-2.94,1.28-4.36,1.34-3.39,2.5-6.9,5.03-9.67,7.33-1.83,4.22-11.85,11.22-14.2,4.26-1.43.5-5.64,2.2-8.38,3.44-5.56,4.26-12.03,5.11-18.41.36-1.34.93-2.6,1.63-3.8,4.55-3.94,5.7-9.03,5.01-14.75.4-2.79,1.54-5.27,3.2-7.53,1.36-1.63,3.06-2.64,5.13-2.76,9.06-3.89,7.4-12.93,9.48-20.18.45-1.28,1.1-2.45,1.92-3.52,6.32-4.16,9.5-10.27,10.82-17.54,4.33-11.85,13.52-20.35,20.71-30.24,1.91-2.03,4.14-3.65,6.42-5.21,4.06-2.54,7.29-6.25,11.68-8.33,13.3-6.07,22.43-15.9,26.93-29.9,10.49-15.56,28.57-21.89,41.67-34.3,1.19-.84,2.46-1.49,3.82-2.01,2.04-.68,4.14-1.02,6.27-1.18,11.14,1.91,20.55-7.98,31.9-4.75-.58-1.95-.57-3.75,1.28-5.12,3.7-2.44,9.18-1.99,11.21-7.06,5.28-8.9,12.51-8.42,20.48-4.26,1.79,1.35-1.47,4.46.16,4.1,11.89-2.58,23.86-.6,36.17-1.38-6.88-10.58-.4-16.31,7.71-21.45,2.58-1.39,5.39-2,8.25-2.43,5.8-.46,11.11-2.85,16.64-4.39,2.24-.53,4.48-.58,6.72-.04,1.49.47,2.72,1.32,3.7,2.53,1.14,1.99,1.57,4.15,1.42,6.43-.49,4.19-2.95,6.7-6.75,7.9,6.7,5.28,15.94,4.28,22.88,9.15,1.09,1.97,1.26,4.05.75,6.21-4.35,11.49-10.45,22.51-9.46,36.88,1.75-7.08.25-13.32,3.17-18.78,2.44-4.56,4.71-4.58,7.31-.2,2.6,20.09,2.47,40.15.17,60.18-2.09,3.42-4.81,6.36-6.73.32-1.43-4.5-.69-9.53-.27-14.31-.68,7.3-.33,14.5,1.15,21.75,1.07,5.25-3.96,10.34-1.03,15.88.37,14.17-4.65,19.31-17.16,14.6-10.3-3.88-17.84-3.01-25.8,4.26-4.74,4.32-11.11,2.99-17.19,2.26-18.21-2.2-29.55,5.38-34.43,22.68-1.39,4.93-2.06,10.34-9.27,8.8-8.31-1.77-10.85,2.49-10.8,9.82.03,4.17-2.53,6.25-6.21,7.3-6.67.19-10.25,3.48-10.3,10.32-1.11,4.93-4.71,7.15-9.21,8.18-5.49,1.26-8.06,4.93-8.86,10.19-.73,9.78-4.58,18.33-10.25,26.16-1.05-.05-1.71-1.02-2.71-1.19,1.23.86,2.33,1.81,2.64,3.41-4.63,14.22-11.13,27.79-14.42,42.44-3.74,7.94-7.17,15.69-12.69,23.08-8.71,11.65-2.36,26.94-3.78,40.59-.18,1.75-1.38,1.07.05,1.29,22.54,3.46,7.36,16.93,7.08,26.33-.29,9.89,8.62,18.07,4.89,28.55-.51,1.81,3.42-.15,1.41-.13-1.06,0-.97-.35-.84-1.25.3-2.03,2.14-5.12,2.39-4.84,5.24,5.8,14.48-2.29,18.92,5.52,2.28,1.85,4.32,3.92,5.81,6.47.97,1.99,1.44,4.11,1.56,6.31,1.38,11.55,9.94,19.43,14.67,29.17,9.13,18.77,29.48,23.39,42.42,37.01l.48-.11c.99,1.71,2.97,2.23,4.29,3.54,2.71,3.41,5.33,6.9,8.54,9.88,3.02,3.15,6.09,6.26,9.22,9.3,3.06,3.1,6.03,6.29,9.54,8.91,4.62,3.4,9.51,6.29,14.95,8.23,1.22.53,2.35,1.21,3.44,1.97,8.32,8.03,19.64,11.17,28.88,17.69,8.21,6.76,17.84,9.63,28.28,10.35,1.44.35,2.82.83,4.19,1.38,26.04,5.64,52.15,4.01,78.25,1.03,1.17-.84,2.44-1.51,3.75-2.08,7.84-3.82,18,2.45,24.84-5.72.56-1.27,1.24-2.46,2.01-3.61.88-1.11,1.97-1.97,3.24-2.6,1.97-.79,4.03-1.17,6.13-1.34,11.62.64,21.19-3.5,29.65-11.51,6.07-5.74,12.23-11.45,20.27-14.93,8.08-3.5,11.03-11.02,11.45-19.55,7.45-15.68,15.11-31.22,29.3-42.26,12.23-3.13,18.39-9.73,13.6-22.99-1.02-2.83-1.34-6.2-.03-8.86,6.32-12.81,4.15-26.48,4.15-39.82.12-256.8.09-513.6.08-770.4,0-11.01.66-21.92,2-32.9,1.05-8.55,5.44-11.5,12.67-11.5,45.53.02,91.07-1.69,136.58.91,2.01.11,3.99.39,5.93.88,3.92.99,9.1,2.16,8.71,6.66-.43,4.91-5.94,4.16-9.78,4.35-20.94,1.04-41.72-2.43-62.67-1.36,19.4-1.09,38.66,2.65,58,1.31,11.84-.82,19.27,3.29,22.51,14.71,2.86,6.7,2.85,13.97,4.01,20.99-.01,4.87-3.21,10.37,2.81,14.08,1.96,1.58,3.28,3.9,5.04,5.4,5.16,4.4-10.28,8.84.88,14.18,5.23,2.5,8.28,10.87,12.42,16.51,1.18,1.61,2.09,3.42,3.32,5,.73,1.19,1.14,2.49,1.25,3.88-2.69,5.72.48,11.79-.92,17.53-1.43,5.89,1.54,6.94,6.38,6.6,4.5-.31,8.98-.34,12.41,3.38,2.66,4.29,4.61,9.24,10.15,10.88,1.17.66,2.23,1.46,3.22,2.36,7.18,5.92,11.33,14.99,20.13,19.19,1.27.43,2.28,1.21,3.03,2.31,1.87,2.84,5.25,3.55,7.77,5.48l.35-.22c1.39,2.16,3.39,3.86,4.58,6.16,1.32,2.83,2.85,5.56,4.51,8.18.5,2.08.61,4.45,3.51,4.89,1.15.48,2.07,1.21,2.79,2.17.28,2.2-.41,4.7,2.03,6.22,2.48,2.04,5.65,2.61,8.4,4.07,8.6,4.9,12.86,16.33,24.7,16.28,5.83.7,10.44,4.05,15.26,6.94,1.79,1.09,3.55,2.26,5.36,3.33,10.41,4.66,20.64,9.66,30.97,14.52,14.69,6.48,30.5,9.56,45.44,15.22,4.57,1.73,10.01,1.74,13.24,6.33,3.55,11.99,5.42,24.18,5.36,36.73-.15,33.41-.38,66.83.14,100.23.16,10.49-3.77,20.54-2.1,31.1.49,3.08-1.35,6.22-4.85,6.44-8.84.56-17.55,5.32-26.49,1.82-21.64-8.47-44.93-7.41-67.19-12.1-9.67-6.96-22.41-3.66-32.55-9.98-6.97-4.34-16.52-4.67-19.87-14.25-.95-2.7-3.86-3.07-6.41-2.32-30,8.84-53.39-7.76-73.61-24.26-10.76-8.78-22.87-1.6-30.98-10.46-1.68-.92-1.88-2.88-2.93-4.25.58,1.66,1.36,3.22,2.42,4.67.12,4.35-2.27,5.8-6.17,5.53-6.44,8.36-2.37,18.88-5.75,27.9.03,115.46,0,230.87.03,346.27.32-116.73-.3-233.46.35-350.19,1.16-1.96,2.76-2.42,4.79-1.39,4.58,5.52,3.83,12.2,3.84,18.63.05,115.95.75,231.91-.52,347.84-.28,25.8-1.9,52.08-7.14,77.66-1.14,1.97-2.2,4.21-5.23,3.32-1.42-.42-1.45-2.3-2.85-2.76,1.16,1.47,2.06,3.15,3.52,4.39,1.4,9.64,1.95,18.18-10.23,22.42-6.06,2.11-10.82,7.8-3.48,14.82,2.56,2.45,2.12,5.28.01,7.93-4.39,3.41-7.32,7.44-5.7,13.43,1.86,12.37-3.3,20.96-14.2,26.45-2.64,2.18-3.79,5.59-6.34,7.86-16.23,1.43-5.24,9.76-3.94,15.61-3.23,8.99-4.03,18.84-15.12,23.7-6.47,2.83-4.58,13.56-11.64,17.99-3.63,2.28-5.77,7.76-10.9,6.8-14.37-2.7-16.02,5.57-15.17,16.54.19,2.48,0,5-.26,7.5-.74,9.27-9.27,13.67-13.11,21.01-.88,1.13-1.98,2-3.26,2.65-4.31,1.24-8.54,3.38-12.98,3.42-6.53.07-10.45.59-11.18,9.15-.53,6.2-7.19,11.1-13.45,12.95-6.37,1.88-1.27,5.28-2.14,7.79-1.88,6.56-6.54,9.62-12.94,10.53-1.47.16-3.47-.39-4.36.36-13.52,11.29-27.49,12.9-42.25,1.34,5.75,5.16,14.2,5.15,17.35,12.96-1.09,7.2-7.14,9.36-12.42,12.34-6.46,2.19-12.44,5.82-19.37,6.59-5.95.49-12.08,1.1-17.84-.33-7.16-1.78-12,.66-17.28,5.25-19.18,16.67-43.66,17.76-63.26,3.44,11.6,12.03,10.33,15.38-7.95,20.87-15.82.4-31.66,2.83-47.11-3.76-5.28-2.25-12.25-2.22-17.59.62-14.75,7.84-28.49,5.32-42.11-2.44-4.61-1.2,8.28-5.7-.95-5.67-7.4.03-14.65.36-21.63-2.77-3.39-1.52-3.31,2.68-5.24,3.71-5.43,2.77-13.19,3.3-15.03-1.41-4.92-12.57-12.46-7.37-20.89-6.2-11.69,1.62-22.64-2.61-32.69-8.77-3.11-2.33,1.99-12.19-8.79-8.08-9.84,3.74-14.01-3.32-15.93-12.42-1.03-4.89-1.34-15.17-9.69-3.25-2.96,4.22-8.54.92-11.16-3.14-3.54-5.5-8.1-7.14-14.56-8.3-7.76-1.39-17.02-3.26-19.19-13.76-.52-2.53-2.54-4.83-4.85-5.31-12.79-2.68-22.19-13-35.09-15.29Z"/>
  <path class="cls-156" d="M405.34,820.74c3.83-4.04,7.67-8.08,11.5-12.12,14.27-10.95,22.69-28.15,39.02-36.82,6.54-3.48,5.26-11.47,10.12-15.73l-.29-1.37c6.56-7.22,12.75-14.93,23.08-17.06,8.15-1.8,16.62-3.1,19.69-12.75.56-1.21,1.31-2.3,2.22-3.28l.13-.08c1.12-.87,2.38-1.29,3.8-1.27,12.38-.67,21.31-8.33,30.67-15.11,9.32-1,16.74-6.99,25.33-10.04,6.67-2.36,12.9-4.39,19.91-4.08,1.74.98-.19-.89,1.46.25q13.04,9.03,15.87-6.45c16.05-14.21,37.19-11.95,56.01-17.13,4.16-1.15,8.93-.49,13.38-1.27,7.95-.26,15.89-.36,23.82.08,5.44.3,11.23.57,12.67,7.68-2.69,14.35-11.72,18.98-25.77,18.88-8.04-.05-18.12-4.84-24.09,5.42,2.76,6.08,8.41,3.26,12.8,4.15,5.42,1.1,12.33-.24,12.87,8.33-9.43,5.56-19.32,10.19-29.46,14.33-1.18.77-2.44,1.35-3.77,1.83-17.05.69-31.44,8.19-45.09,17.6-6.49,7.51-15.11,11.06-24.43,13.32-11.91,1.58-21.62,7.65-30.68,15.07l.06-.13c-18.67,6.56-31.77,20.97-46.52,33.05-10.22,5.51-18.29,13.07-22.85,23.98-.45,1.3-1.06,2.52-1.77,3.7-2.23,2.58-4.56,5.06-7.67,6.63-7.05.82-8.45,7.32-11.83,11.84-13.88,13.61-22.59,30.75-32.34,47.17-7.24,6.43-9.98,15.6-14.42,23.74-11.51,12.6-13.04,29.85-20.56,44.32-7.69,10.09-7.47,22.59-10.48,34.1l.12.2c-6.2-.19-3,4.48-3.54,7.08-1.32,6.26-1.41,13.02-7.76,16.94-7.53,10.28-1.22,21.84-2.98,32.68-.03,5.46.36,10.92-.53,16.28-.84,5.07-2.25,9.94-9.22,8.67-2.12-1.56-3.79-3.82-3.69-6.25.88-20.64-4.99-40.63-8.15-60.57-3.56-22.46,2.77-44.37-1.58-66.25-3.52-8.74-2.66-16.86,1.76-25.42,6.74-13.05,10.19-27.44,14.59-41.41.44-1.34,1.1-2.57,1.91-3.72,8.62-7.64,15.98-16.08,17.46-28.17,7.4-.36,3.26-6.42,4.76-9.7.4-1.32,1.09-2.47,2.01-3.48,10.47.3,7.91-8.59,9.98-14.2.6-1.29,1.41-2.44,2.41-3.46Z"/>
  <path class="cls-41" d="M1115.16,1338.12c-.04.91-.09,1.83-.15,2.74-2.23,2.88-2.83,6.87-6.12,9.03-5.09,3.74-6.13,12.04-14.09,12.56-1.4.91-2.61.49-3.92-.35-3.72-2.37,0-12.83-9.73-8.73-7.29,3.07-10.39,8.36-10.4,16.12,0,5.56,1.56,10.65,3.37,15.77.49,5.84-4.77,8.32-7.27,12.42-2.02,2.13-4.03,4.26-6.05,6.38-5.82,3.51-11.89,6.55-16.65,11.7-3.97,4.3-8.66,6.89-13.3.47-2.28-1.75-.52-5.94-3.92-6.86-1.43-.39-2.91.87-2.82,2.3.27,4.55,6.03,1.71,7.28,5.15,1.96,3.09,2.95,6.34,1.7,9.97-1.34,3.25-3.93,5.7-5.61,8.74-3.75,5.09-8.97,8.55-13.76,12.52-4.28,2.54-8.17,5.96-13.57,5.97-3.06-.45-5.35-2.17-7.36-4.38-4.63-5.64-10.69-9.67-17.62-10.81-11.93-1.95-13.88-7.77-8.83-17.65.65-6.68-5.05-11.96-4.16-18.7,11.64-14.69,20.1-16.25,33.16-6.16,4.6,7.24,1.92,15.1,2.08,20.12,2.45-26.73,15.34-36.35,47.14-32.74-8.63-10.27,13.88-23-2.6-32.63-.71-5.92-4.57-10.42-7.07-15.55.89-4.89,4.54-8.64,5.46-13.52,8.7-15.12,19.28-28.8,31.57-41.17,13.21-16.18,26.68-32.22,28.07-54.49.69-6.08,2.06-11.86,6.77-16.26,4.22-2.71,7.92-6.44,13.25-7.04,5.35-1.74,7.59,5.78,12.85,4.28,3.69-5.05,2.44-11.77,5.94-16.84,4.5-11.48,1.04-23.42,2.1-35.08.66-7.27-.32-15.17,8.26-18.97,2.37-.96,4.97-1.42,6.98-3.18,3.59-4.31,2.84-9.49,2.84-14.42.06-115.7.08-231.39,0-347.09,0-4,.08-8.03-1.31-11.83-.85-1.37-1.59-2.84-2.27-4.3-3.23-8.17.43-19.38-10.61-24.18-2.85-4.58.48-8.48,1.37-12.67,1.25-5.89,2.54-11.89-4.52-15.41-5.13-3.76-7.11-8.84-3.13-13.94,4.19-5.37,8.86-.33,13.24,1.03,6.01,1.87,11,6.8,17.91,5.98,7.6.11,14.48,1.9,19.43,8.22,2.01,5.06,3.7,10.07,10.6,10.82,4.01.44,7.72,2.6,6.65,7.99-2.84,4.58-8.09,5.65-12.21,8.36-1.97.82-4.03,1.01-6.12.73-16.19,2.1-6.03,14.52-8.57,21.99.45,100.07-.16,200.1.09,300.12.02,7.97-.79,16.09,3.7,23.36,1.86,9.97,1.05,19.99.64,30.01-5.8,10.24-4.41,21.47-4.37,32.51,2.1,24.1-5.55,46.64-11.19,69.49-2.05,8.29-2.19,16.67-2.07,25.1-.12,4.41.39,8.99-3.23,12.5h.01c-2.15,4.05-1.96,8.99-4.91,12.72-4.32,2.62-4.08,7.99-6.92,11.5h0c-4.17,3.64-2.6,8.65-3.11,13.18-.13,5.27-3.03,9.1-6.52,12.61-5.27,1.5-5.93,6.64-8.24,10.48l.05-.06c-2.73,1.97-4.02,5.09-6.03,7.64-4.24,7.38-8.55,14.71-12.17,22.42Z"/>
  <path class="cls-44" d="M913.56,1094.3c.17-2.82.35-5.63.52-8.45,2.22-5.83,1.09-11.9,1.09-17.85.07-260.88.05-521.77.1-782.65,0-5.97-.85-12.02.82-17.93-4.7-8.61-2.81-12.33,7.64-12.29,67.31.25,134.63.31,201.94-.01,9.16-.04,10.69,3.76,10.55,11.59-.22,12.42-.4,24.94,3.46,37.03-.74.64-1.48,1.28-2.21,1.94-6.66,3.46-13.72,1.2-20.55,1.18-50.21-.15-100.42-.87-150.62.47-2.8-.19-5.4-.95-7.59-2.76-3.11-8.54,2.77-8.99,8.57-9.41,12.91-.95,25.8-.93,38.76-.72,32.96.55,65.94.18,92.22.18-31.62-1.9-70,2.39-108.35-1.88-8.94-1-18.68,1.53-28.09,2.21-11.53.83-18.24-2.24-19.48-14.63-.6-5.99-3.16-10.37-8.17-2.08-1.58,41.65-.79,83.24-.34,124.82.13,11.92,6.17,23.06,5.31,35.45-.79,11.46-1.12,22.7-4.03,34.09-3.34,13.05-2.74,26.73,1.06,40.11,4.61,16.2,4.6,32.92.63,49.04-4.06,16.53-4.25,32.38-.03,48.81,3.9,15.2,3.82,31.01.27,46.17-2.32,9.9-3.63,19.6-3.63,29.64.02,109.25-.18,218.5.16,327.75.08,24.41,6.61,48.37,7.03,72.82,1.02,1.48,1.82,3.08,2.46,4.76,1.83,5.83,1.94,11.8,1.26,17.8-1.88,7.92-5.66,14.66-14.95,13.28-9.44-1.41-10.27-9.56-10.65-17.32-.32-6.5.54-12.82,2.61-19.02-2.37,2.84-1.25,9.23-7.79,7.88Z"/>
  <path class="cls-44" d="M913.56,1094.3c6.27-4.11,5.52-11.14,9.15-17.31,0,9.88.1,19.76-.04,29.64-.08,5.7-.34,11.9,6.62,13.31,7.65,1.55,10.38-3.93,11.46-10.45,9.35-3.02,8.58,4.4,9.74,9.59,1.21,5.43-1.43,11.81,4.1,16.14,2.03,1.07,3.88,2.37,5.37,4.14,2.72,4.81,2.18,9.75-.81,13.93-7.53,10.57-8.98,22.5-8.76,34.93-.74,3.09-1.63,6.1-4.14,8.29-7.98,12.8-15.96,25.59-23.93,38.39-7.13,7.66-15.53,13.93-23.13,21.08-16.72,8.42-34.88,14.36-48.54,28.09l.06-.07c-9.42,5.44-20.51,4.37-30.44,7.88-20.53-10.78-43.44-8.57-65.33-11.92-15.07-7.08-30.7-3.99-46.23-2.52-13.48,3.61-21.87-7.66-32.88-11.29l.03.13c-5.2-4.69-12.09-9.45-6.47-17.34,4.89-6.86,11.29-1.74,17.56-.6,27.17,4.96,54.62,2,81.95,1.15,12.55-.39,24.39-3.91,33.71-13.18l-.4-1.13c8.18-9.32,19.66-12.76,30.59-17.2l-.04.06c4.23-6.09,9.65-10.68,16.76-13.1,1.26-.47,2.56-.76,3.91-.88.68.04,1.36.11,2.04.14,7.98.36,15.14-.46,16.01-10.7.91-6.66,7.4-11.21,6.91-18.42.93-5.08,4.16-8.54,8.05-11.55,14.54-19.11,19.92-41.7,24.36-64.61.4-2.04.65-3.79,2.76-4.64Z"/>
  <path class="cls-98" d="M730.95,709.73c15.56-.95,31.12-1.9,46.68-2.86,5.66,4.83,5.4,11.54,5.49,18.01.89,63.49-3.09,126.94-1.78,190.43.26,12.48-6.04,17.19-17.97,15.28-14.64-.49-28.12,6.54-42.68,6.67-1.83-.69-3.04-1.96-3.64-3.82,4.25-13.18,15.9-13.73,26.57-14.69,24.16-2.17,24.08-1.85,24.13-26.45.1-49.02-.38-98.04.22-147.05.11-2.46.15-4.95.19-7.4-1.4-16.13-5.01-18.01-24.97-12.87-4.7,7.4-2.11,15.49-2.3,23.28-.85,33.74-.19,67.49-.35,101.23.22,6.22.41,12.44-.09,18.65-.11,10.87-4.3,18.91-15.36,22.21-5.76,1.02-11.59.73-17.4.72-6.77.11-13.73-.73-19.64,3.85-4.96,2.15-10.29,1.88-15.5,2.34-10.88,2.44-19.28,9.21-27.69,15.98-4.83,1.79-9.65,1.9-14.49,0-1.67-.78-2.68-2.08-3.05-3.88,1.59-6.76,7.41-8.9,12.64-11.85,21.24-11.98,43.86-19.77,68.19-21.82,12.77-1.08,17.39-6.68,18.11-19.99,2.5-46.53-.72-93.03.44-139.53.38-1.76,1.09-3.37,2.11-4.85.71-.53,1.43-1.06,2.15-1.58Z"/>
  <path class="cls-154" d="M1139.69,303.74c14.66.03,29.33.07,43.99.1,3.2,21.47,9.02,42.61,8.19,64.59-2.77,19.07,3.76,36.69,8.75,54.5,2.63,9.38,1.66,15.75-9.96,15.78-12.39-4.83-18.57-14.53-21.08-27.08l.04.03c-12.71-14.77-17.68-32.9-22.27-51.2-.8-9.05,1.88-18.63-4.14-26.88-2.77-5.34.28-10.44.68-15.63,3.01-7.68,7.94-.45,12.84.03-3.77-7.22-7.44-5.08-11.14-2.72-2.27,1.92-1.36,5.61-4.09,7.28-1.66.12-2.95-.5-3.89-1.87-2.1-5.36-2.8-10.64.88-15.66.46-.37.86-.79,1.21-1.27Z"/>
  <path class="cls-4" d="M1000.78,1452.16c3.91-2.04,7.83-4.07,11.74-6.11,5.04-1.02,8.48-5.16,13.03-6.87,6.21-2.33,13.13-4.12,11.43,7.08-7.93,4.54-5.32,12.4-6.03,19.21-.39,3.78.42,10.91-3.7,9.81-10.62-2.83-21.11,1.66-31.31-1.28-1.86-.54-.92-6.93-5.65-3.32-2.64,2.02-2.77,4.59-2.17,7.95,2.45,13.83-4.56,23.71-13.47,33.45-8.3,9.07-18.35,5.46-27.88,6.36.26-7.27-7.9-4.56-10.81-9.3,8.21-6.24,18.55.32,29.86-6.24-14.63-4.21-26.87-2.13-38.9-1.97-.72,0-2.14,1.35-2.03,1.71,5.24,17.84-9.52,6.52-14.21,9.78-2.09-2.18-4.53-3.34-7.92-2.62,3.24-.28,5.85.39,7.92,2.63-8.03,10.18-16.04,8.13-24.06-.02-1.64-1.72-2.27-3.76-1.96-6.1,1.43-5.02,5.93-6.18,9.94-7.98,1.31-.57,2.67-1.04,4.04-1.46,10.08-2.94,20.05-6.18,29.64-10.53,1.97-.71,4-1.12,6.07-1.33,7.98.05,15.84-.24,21.15-7.63.88-.96,1.86-1.8,2.89-2.59,3.7-2.42,7.83-4,11.69-6.11,3.27-1.61,6.16-3.82,9.07-5.99,2.57-1.69,5.15-3.35,7.63-5.19,1.03-.76,2.12-1.41,3.25-2,3.15-2.51,7.51-1.13,10.75-3.35Z"/>
  <path class="cls-89" d="M1327.63,8.54H457.65c0-.5,0-1,0-1.5h870.58c-.2.5-.4,1-.59,1.5Z"/>
  <path class="cls-15" d="M916.1,267.43c.28,20.51.79,41.03.8,61.54.04,244.48.02,488.95-.12,733.43,0,7.83,1.97,16.08-2.69,23.45-.08-89.15-.21-178.31-.23-267.47-.04-178.35-.03-356.71.08-535.06,0-5.31-1.93-11.07,2.17-15.9Z"/>
  <path class="cls-202" d="M363.45,1082.44c11.88-6.83,3.35-18.19,6.01-27.07,2.08-2.59,4.01-5.81,7.66-1.81,1.91,3.06,1.74,6.44,1.47,9.83,1.28,8.91,1.93,17.88.78,26.8-4.56,35.56,1,70.46,7.29,105.2,2.27,12.57,1.71,26.02,9.04,37.41,2.92,21.77,13.65,40.8,21.49,60.85,1.2,3.76,2.4,7.53,3.6,11.29-.89,4.93,4.26,13.11-6.78,12.56-11.35-13.06-21.84-26.71-29.68-42.24-1.16-5.16-4.66-9.82-3.34-15.51,2.63-1.86,5.44-1.42,9.15-.01-18.94-33.52-16.37-71.11-24.65-106.27-1.33-10.67,2.73-22.01-4.13-31.96-2.14-5.59-2.17-11.41-2.04-17.26.04-4.21-.23-8.42.24-12.63.3-3.48,1.04-6.78,3.89-9.17Z"/>
  <path class="cls-153" d="M321.35,1019.29c-3.18-28.5,2.09-55.61,15.91-79.26-3.72-3.72-4.99-3.85-5.99-2.22-1.91,3.11-1.82,9.25-7.24,7.49-4.72-1.53-3.6-7.63-2.3-10.52,5.74-12.85,4.8-29.56,20.62-36.85,3.96-1.83,3.13-6.01,2.98-9.34-.6-13.23,3.46-19.29,17.37-12.46,1.89.93,4.84-.33,7.3-.57,1.15,1.94,1.24,3.78-.55,5.42v-.02c-9.33,24.88-20.49,49.13-26.06,75.31-.34,2.23-.89,4.41-1.54,6.57-2.17,7.25-3.98,14.59-5.41,22.03-3.59,11.37-1.05,24.2-8.28,34.7-2.32,1.43-4.6,1.53-6.8-.26Z"/>
  <path class="cls-71" d="M1175.34,748.63c0-7.59-1.63-15.52,5.96-21.12,3.52-2.6,5-1.57,5.91,2.1-2.12,21.83-.9,43.77-1.06,65.6-.83,111.51-.46,223.03-.28,334.55.02,13.51-2.54,26.89-1.56,40.39.39,5.37-2.61,9.5-4.2,14.15-5.64,14.45-8.49,29.6-11.21,44.79-1.92,2.3.2,7.71-5.48,7.11-1.4-22.19,5.33-42.89,10.73-64.01,2.63-10.3.91-21.71,1.16-32.61,6.77-9.12-.42-20.89,5.7-30.14,0-9.98,0-19.97,0-29.95-3.14-5.52-2.68-11.61-2.68-17.6-.02-81.66-.25-163.32.18-244.98.09-17.47-.63-34.92-.26-52.39.11-5.41.99-11.12-2.88-15.88Z"/>
  <path class="cls-163" d="M760.34,929.3c14.53.65,18.96-5.55,18.71-20.57-.98-59.82-.31-119.66-.37-179.49,0-7.46-.69-14.91-1.06-22.37,8.39-1.3,13.14.66,12.94,10.79-.51,25.96,4.04,52.8-1.12,77.7-8.47,40.86-2.57,81.46-4.97,122.07-.93,15.73-6.47,19.29-24.13,14.66-1.02-.62-1.36-1.24-1.02-1.86.34-.62.68-.93,1.02-.93Z"/>
  <path class="cls-174" d="M1394.78,532.34c5.81-5.09,6.97,1.03,7.64,3.97,1.21,5.26.98,10.84,1.4,16.28,1.22,15.93,8.27,21.8,24.16,20.16,16.77-1.72,23.91,4.65,23.93,21.68.06,51.97-.05,103.93.11,155.9.03,8.72-.44,16.99,4.56,25.74,6.49,11.36-7.36,30.21-20.68,29.53-10.73-.54-21.89,3.25-32.21-2.57,6.15-6.37,14.19-3.7,21.5-4.52q19.19-.39,19.23-20.01c.02-41.91-.16-83.82.1-125.73.09-14.49-4.41-28.61-2.86-43.13-.02-3.45-.19-6.94.12-10.37,1.01-10.99-4.16-15.11-14.81-14.99-11.34.13-23.05.31-31.13-10.13-3.81-13.85-2.74-27.82-1.06-41.81Z"/>
  <path class="cls-93" d="M1180.09,1184.3c8.72-145.75,1.89-291.65,4.1-437.46.09-5.84-1.44-12.1,3.02-17.23,1.98.47,3.97.95,5.95,1.42,4.13.09,7.23,2.45,10.38,4.71,1.75,2.03,3.42,4.09,1.65,6.96-5.82,1-10.59-1.41-17.84-7.24,5.13,22.81.18,42.68.14,62.72-.23,122.76-.16,245.51-.15,368.27,0,7.01,1.12,14.31-7.25,17.84Z"/>
  <path class="cls-105" d="M463.48,1370.82c.83-.55,1.59-1.32,2.51-1.63,5.5-1.82,42.61,16.2,42.28,21.43-.82,12.82,13.78,11.41,15.15,10.91,10.48-3.84,13.1,2.79,15.84,9.71,1.31,3.31,3.65,5.73,6.54,4.27,3.96-2.01-1.29-3.35-1.41-5.44-.29-5.11,2.76-5.89,6.66-5.65,4.45.28,7.22,3.25,9.42,6.69,3.68,5.75-2.29,15.7,6.35,18.52,5.71,1.87,12.46-3.15,19.2-.59-.8,3.56-4.22,6.6-2.84,10.79-.49.56-.98,1.12-1.46,1.68-2.05,1.06-4.21,1.28-6.46.94-14.89-5.11-27.98-14.41-43.27-18.61-15.9-13.36-35.33-21.69-50.98-35.42-3.19-3.43-6.52-6.75-9.36-10.5-2.72-2.37-5.44-4.75-8.16-7.12Z"/>
  <path class="cls-85" d="M802.63,1236.31c-2.63,18.44-19.14,15.06-30.09,16.87-15.47,2.55-31.68.74-47.58.64-15.77-.1-31.92,5.64-47.02-5.01-4.47-3.15-8.29,1.35-7.16,7.19.73,3.82,5.97,5.54,5.08,10.27-7.66.1-12.59-4.96-17.83-9.42-2.13-3.84-5.02-6.91-8.99-8.89-3-3.06-6-6.12-9-9.17-2.8-4.06-5.68-8.06-9.24-11.51-.75-1.26-1.49-2.51-2.24-3.76,12.95.92,22.04,11.15,34.15,14.14,5.28,1.3,10.48,2.95,15.71,4.45,24.46,3.47,48.73,9.36,73.74,6.02.81.51,1.53.4,2.14-.33,14.97-4.46,30.34-7.41,45.3-11.93,1.01.15,2.01.29,3.02.44Z"/>
  <path class="cls-24" d="M591.93,694.5c-12.48-.17-23.67,2.39-33.48,11.29-2.83,2.57-9.55.86-14.48,1.11-1.14.84-2.19.73-3.13-.33,55.9-31.48,116.49-45.17,180.08-47.9,8.68-.37,9.64,3.63,9.51,10.71-.24,13.44.3,26.9.52,40.35,0,0-.95-.02-.95-.02-2.42,1.8-4.65,1.36-6.51-.8-2.44-2.83-2.66-6.38-2.8-9.88-.42-10.21,5.23-24.29-4.15-29.48-11.83-6.54-26.93-3.31-40.4.92-21.61-.28-42,5.51-62.18,12.39-2.79.95-3.57,3.08-3.98,5.59-4.61,6.22-13.04,1.03-18.04,6.05Z"/>
  <path class="cls-196" d="M1301.57,541.28c-1.16-.72-2.32-1.44-3.49-2.16-5.06-10.68-16.58-13.49-24.75-20.37-5.54-4.67-10.14-9.58,1.02-13.09,7.04,2.87,14.93,3.56,21.22,8.34,8.34,7.9,20.29,8.12,29.56,13.62,14.92,8.86,31.24,5.78,47.02,7.54,5.78,1.25,14.78-3.06,14.55,8.47-1.47,2.33-3.76,3.39-6.27,4.13-13.22,5.18-26.82,7.92-41.08,6.3-2.32-.17-4.55-.79-6.72-1.57-10.06-4.52-19.35-11.23-31.07-11.22Z"/>
  <path class="cls-106" d="M321.35,1019.29c1.79-.01,3.59-.02,5.38-.03,2.49,1.42,3.37,3.79,3.87,6.41.48,3.48.12,6.9-.65,10.3-3.3,34.2-.63,68.05,5.91,101.67,5.04,33.77,16.8,65.45,30.3,96.57,2.33,5.37,6.43,10.35,2.65,16.65-1.92-.11-3.07,7.45-5.53.8-5.88-15.89-19.18-30.17-22.02-44.6-3.64-18.51-9.42-36.25-13.97-54.37-11.08-44.1-3.85-88.95-5.94-133.4Z"/>
  <path class="cls-7" d="M826.76,1518.81c-1.62,7.01-7.29,5.65-12.06,5.6-28.79-.28-57.65,1.78-86.15-5.31-8.47-2.11-17.88-.64-26.85-.47-9.26.17-17.93-.89-26.2-5.91-14.62-8.87-32.88-7.99-47.61-17.42-4.65-2.98-9.68,4.04-15.44,4.19-4.59-5.69,10.3-5.02,3.49-11.02,1.72-2.03,4.01-2.82,6.57-3.03,22.95,5.05,44.46,15.36,67.9,18.72,28.23,6.89,56.7,11.16,85.89,10.24,14.47-.46,29-.69,43.5.38,2.8.51,5.28,1.58,6.95,4.04Z"/>
  <path class="cls-132" d="M368.81,1250.86c-13.01-31.22-27.13-62.05-33.76-95.51-.96-4.85-1.36-9.81-2.01-14.71-.99-2.23-1.21-4.54-.72-6.93.41-1.43.66-2.91,1-4.36.73-3.15.12-7.88,5.03-7.42,3.42.32,4.29,4.39,3.94,7.18-1.64,13.43,4.01,25.38,7.17,37.81,12.94,18.49,15.55,40.82,22.18,61.58,2.86,8.94,12.99,14.27,11.18,24.97-3.37,5.71-7.13,4.39-11.02.62-1-1.08-1.99-2.16-2.99-3.23Z"/>
  <path class="cls-112" d="M948.81,226.46h164.18c0,.96,0,1.91,0,2.87h-164.19c0-.96,0-1.91.01-2.87Z"/>
  <path class="cls-48" d="M598.17,1160.59c.54.88.7,1.83.47,2.84-2.86,4.61-2.42,13.26-10.18,12.18-9.96-1.39-12.58-9.59-12.59-18.68.11-5.56-.83-10.91-3.12-16.01-1.65-3.67-3.51-7.78-2.45-11.55,4.4-15.54,6.58-30.81.4-46.53-1.34-3.4.15-8.19,4.54-10.03,4.15-1.74,6.47,1.63,8.67,4.2,2.31,2.69,5.23,4.6,7.77,6.97,4.23,7.44-3.28,13.37-2.62,20.37-1.66,19.51,2.89,38.02,9.1,56.25Z"/>
  <path class="cls-138" d="M1385.76,544.18c-1.96-9.61-9.74-4.73-15.03-6.04-1.75-2-1.88-4,0-6,8.02.07,16.04.13,24.05.2,7.88,13.47,1.31,28.38,4.22,42.35.26,1.28-.13,2.33-1.08,3.2-2.9.94-4.37-1.35-6.22-2.76-20.57-4.68-40.76-10.56-60.06-19.22-1.64-1.9-1.87-3.81,0-5.71,2,.01,4,.03,6,.04,8.04,3.76,17.49,2.98,25.21,7.78,2.45.26,4.9.43,7.34.68q15.01,1.55,15.57-14.52Z"/>
  <path class="cls-56" d="M1187.72,435.84c9.33.2,13.05-.49,8.88-12.67-5.87-17.15-12.37-35.07-8.99-54.14,7.06,1.45,5.52,8.38,8.12,12.68.85,8.14.6,16.44,3.31,24.34l-.05.11c4.21,2.82,2.66,7.94,4.67,11.64,6.78,6.51,2.59,16.7,7.96,23.69,4.84,10.68,9.67,21.37,14.51,32.05-.15,1.86-.87,2.23-2.26.86l-.07-.02c-10.85-3.71-15.51-14.47-23.89-20.99-6.34-2.93-9.06-9.27-13.3-14.18-.39-1.37-.02-2.49,1.1-3.37Z"/>
  <path class="cls-69" d="M579.92,1157.63c0,.49-.05,1,.02,1.48,2.22,14.59,4.39,15.09,18.71,4.32,6.9,6.61,4.47,17.63,11.43,24.21,5.95,6.78,12.13,13.47,9.83,23.68-6.39,3.82-11.03-1.1-14.47-4.41-15.01-14.41-28.61-30.1-37.54-49.23-.17-1.7-.34-3.4-.51-5.1-.67-1.35-.67-2.71-.11-4.1,8.08-2.31,8.61,5.85,12.65,9.14Z"/>
  <path class="cls-128" d="M1425.67,802.38c-7.33.22-14.65.43-21.98.65-42.89-5.31-86.53-7.13-126.23-27.23-1.02-1.55-.85-2.95.51-4.21,11-5.29,19.67,4.08,29.74,4.69,7.87,4.42,16.86,4.31,25.37,6.14,26.34,7.76,53.42,10.98,80.63,13.42,4.83.43,10.29.14,11.96,6.54Z"/>
  <path class="cls-47" d="M1370.73,532.13c0,2,0,4,0,6-2.98,0-6.07-.47-8.94.11-21.1,4.25-38-9.77-57.32-13.31-3.99-.73-8.45-5.22-8.89-10.94,25.05,6.05,50.1,12.09,75.15,18.14Z"/>
  <path class="cls-23" d="M1072.82,1386.09c-10.13-7.02-6.16-17.46-4.82-26.05,1.48-9.48,12.6-10.03,19.54-14.15,3.61-2.14,6.34,2.01,5.24,6.15-1.07,4-2.73,7.71,2.02,10.41-1.21,1.85-2.43,3.69-3.64,5.54-9,3.1-7.16,17.2-18.34,18.1Z"/>
  <path class="cls-42" d="M1192.81,381.97c-3.74-3.5-.78-9.7-5.2-12.93-1.31-21.73-2.62-43.47-3.93-65.2,6.21,21.81,16.15,42.76,14.19,66.4-.48,5.79.89,11.73,1.41,17.6-5.61,1.85-3.29-5.04-6.47-5.87Z"/>
  <path class="cls-73" d="M567.89,1157.68c15.26,19.29,27.9,41.06,50.48,53.44,3.08.25,5.52,1.33,6.14,4.75,1.19,2.59,2.38,5.17,3.58,7.76-7.83-4.01-15.71-7.91-23.46-12.05-7.06-3.77-17.51-4.78-14.47-17.24.22-.88-1.56-3.14-2.64-3.31-13.39-2.16-9.33-18.54-19.47-23.64-3.79-1.91.18-6.4-.16-9.71Z"/>
  <path class="cls-32" d="M562.31,1457.98c-11.87.8-20.53-5.9-28.69-12.96-9.55-8.26-17.56-18.66-32.4-17.17-3.82.38-5.33-2.57-2.18-5.77,3.32-3.37,2.56-7.31,2.19-11.27.52-.45,1.04-.9,1.57-1.35,9.22,1.94,14.35,10.12,22.01,14.44,10.83,11.59,24.21,19.79,37.47,28.16,1.19,1.97,1.45,3.94.03,5.91Z"/>
  <path class="cls-19" d="M414.01,1317.49c7.87-1.16,1.64-9.93,6.78-12.56,11.03,20.23,26.71,37.53,36.72,58.4-2.08,1.86-3.17.22-4.33-1.21-11.39-8.71-23.25-16.97-29.23-30.81-3.31-4.61-6.62-9.22-9.94-13.82Z"/>
  <path class="cls-114" d="M1274.36,505.66c-5.54,4.84-4.03,6.36,1.81,11.06,7.94,6.39,23.13,6.92,21.92,22.41-4.73-2.38-9.46-4.76-14.19-7.14-15.28-6.19-24.31-19.85-36.13-30.17l-.06.08c-1.3-1.11-1.76-2.5-1.39-4.16,2.66-4.51,6.21-3.76,9.99-1.69,6.02,3.21,12.03,6.42,18.05,9.63Z"/>
  <path class="cls-16" d="M586.01,1103.48c-2.47-7.38,4.53-11.83,5.59-18.11-8.8-13.49.44-25.91,2.28-38.76.35-8.82,3.77-15.26,13.29-16.88,1.45.19,2.59.92,3.44,2.11-8.59,23.3-14.86,47.18-18.21,71.81-2.17,1.64-4.31,1.64-6.4-.16Z"/>
  <path class="cls-106" d="M510.69,721.61c-.12.69-.2,1.38-.23,2.07-2.93,10.72-14.43,10-21.06,15.79-9.17,3.1-13.94,13.05-23.7,15.22,2.24-8.08-5.5-23.23,14.18-19.15,2.65.55,6.82-5.02,9.91-8.13,5.94-5.98,12.24-9.96,20.9-5.81Z"/>
  <path class="cls-181" d="M832.81,1217.99c-8.66,8.46-19.56,12.94-30.59,17.2,3.34-10.93-2.78-22.41,2.78-35.95,4.36,15.81,15.7,17.98,27.81,18.75Z"/>
  <path class="cls-161" d="M465.98,756.07c1.38,10.52-2.24,17.5-12.66,21.81-5.1,2.11-10.38,6.81-12.81,11.72-5.14,10.38-14.05,14.87-23.67,19.03.39-1.55.79-3.1,1.18-4.65,1.63-6.43,6.64-9.8,11.8-13.04l-.06.06c2.63-5.33,7.12-8.89,11.72-12.33l.05-.05c3.43-4.6,6.61-9.44,12.18-11.84l-.02.02c1.91-4.04,5-6.93,8.84-9.09.83-1.22,1.58-2.59,3.44-1.61Z"/>
  <path class="cls-181" d="M850.45,1205.47c-5.34,4.98-10.36,10.39-17.69,12.57-4.86-5.81,2.34-8.05,4.44-13.03-11.33,1.09-15.29-7.53-22.46-14.55,8.92-3.69,15.79-5.97,19.34,5.08,2.72,8.45,12.22,1.48,16.19,7.1.83.58,1.13,1.19.91,1.83-.23.66-.47.99-.73.99Z"/>
  <path class="cls-179" d="M1259.76,766.17c-8.07-5.7-17.13-9.17-26.54-11.85-1.53-.57-2.03-1.67-1.65-3.22.97-1.97,2.46-3.44,4.39-4.46,8.29-3.02,15.79-7.79,24.01-11.02,4.11.16,6.34,2.57,7.52,6.25.26,1.93.6,4.46-.88,5.47-9.8,6.75-3.21,8.74,3.01,10.94,1.28.73,2.31,1.7,3.12,2.94.44,1.44.52,2.89.21,4.37-.66,1.4-1.69,2.44-3.07,3.14-3.84.97-7.52,1.34-10.13-2.55Z"/>
  <path class="cls-69" d="M586.01,1103.48c2.13.05,4.27.1,6.4.16-.95,19.28,4.35,37.92,5.76,56.96-8.16-11.22-11.54-24.03-12.16-37.65-.29-6.47-.02-12.97,0-19.46Z"/>
  <path class="cls-198" d="M760.34,929.3c0,.93,0,1.86,0,2.78-20.86,2.22-39.03,15.39-60.57,14.82,3.22-11.81,14.14-8.8,22.1-11.49,12.94-1.28,25.01-8.1,38.47-6.12Z"/>
  <path class="cls-141" d="M752.17,1248.14c-25.16,5.13-49.68,2.3-73.74-6.02,24.82-.95,49.06,5.28,73.74,6.02Z"/>
  <path class="cls-166" d="M721.87,935.42c-6.26,5.96-16.25,4.74-22.1,11.49-6.78-.37-10.91,6.16-17.34,6.69-.53-.62-1.05-1.25-1.59-1.87-.83-2.47-.56-4.85.53-7.17,12.62-14.09,20.65-16.23,36.73-9.81,1.26.22,2.51.44,3.77.66Z"/>
  <path class="cls-157" d="M651.82,979.69c.05.99.56,2.36.1,2.92-10,12.22-16.08,27.61-29.74,36.87-1.1-.91-1.86-2.03-2.26-3.41-.66-9.33,8.06-13.93,10.83-21.54,1.68-2.9,3.87-5.32,6.66-7.19,2.62-1.7,5.14-3.57,7.52-5.61,2.05-1.5,4.11-2.99,6.89-2.05Z"/>
  <path class="cls-113" d="M423.94,1331.31c10.47,9.59,20.66,19.43,29.24,30.81-15.25-2.01-30.52-18.09-29.24-30.81Z"/>
  <path class="cls-32" d="M471.64,1377.94c3.24,2.65,6.49,5.3,9.73,7.94,5.74,8.99,19.93,10.92,20.32,24.37,0,0-.46.55-.46.56-3.66,1.45-6.61,7.33-10.67-1.03-5.36-11.04-16.62-18.78-18.93-31.84Z"/>
  <path class="cls-84" d="M624.51,1215.88c-2.04-1.58-4.09-3.16-6.14-4.75-2.77-7.83-5.54-15.66-8.3-23.48,14.02,1.83,19.89,13.32,14.44,28.23Z"/>
  <path class="cls-97" d="M1036.98,1446.27c-2.03-7.94-6.76-7.33-11.63-3.09-3.98,3.46-7.63,5.96-12.83,2.88,2.58-5.6,8.75-7.23,12.59-11.43,2.04-3.34,6.28-4.11,8.45-7.29,1.3-.42,2.42-.1,3.39.84-.47,5.33,4.91,8.06,5.71,12.79.77,4.52.36,7.99-5.69,5.3Z"/>
  <path class="cls-54" d="M1036.95,1428.17c-1.02,0-2.04,0-3.06,0-1.23,1.29-2.31,1.17-3.22-.37.12-3.84.25-7.68.37-11.52h-.01c5.45,2.71,9.48.68,12.35-4.05,4.05-6.67,9.99-8.92,17.42-8.17-5.79,10.17-17.61,14.37-23.84,24.1Z"/>
  <path class="cls-141" d="M799.61,1235.87c-14.22,7.31-29.14,11.95-45.3,11.93-1.71-3.74-6.28-1.93-11.41-7.14,21.56,5.96,38.24-5.89,56.71-4.79Z"/>
  <path class="cls-172" d="M369.45,880.97c.18-1.81.37-3.61.55-5.42,0,0,.03-.04.03-.04,3.08-7.63,4.62-16.09,11.67-21.56,1.24-1.96,2.49-3.92,3.73-5.87,2.47-.26,3.19.74,2.17,3,2.06,14.89-5.74,23.79-18.15,29.89Z"/>
  <path class="cls-131" d="M1072.82,1386.09c3.47-1.52,6.16-4.04,5.95-7.9-.5-9.31,4.89-10.9,12.39-10.2-2.81,14.23-14.53,21.16-24.31,29.69-.38-5.08,4.74-7.34,5.97-11.59Z"/>
  <path class="cls-93" d="M1232.7,751.62c-.04.94.13,1.84.52,2.7-12.55.14-25.21,1.7-38.99-1.51,5.51-7.08,13.31-1.21,17.08-6.96,4.07-3.76,8.29-1.32,12.48-.32,3.45,1.31,6.89,2.67,8.91,6.09Z"/>
  <path class="cls-115" d="M622.53,1488.12c-2.2.11-4.39.23-6.59.34-10.27.45-20.18.18-24.29-11.92,1.56-2.03,3.73-2.83,6.17-3.09,9.83,2.18,20.23,3.44,24.7,14.66Z"/>
  <path class="cls-136" d="M540.84,706.56c1.04.11,2.08.22,3.13.33-6.58,12.06-16.44,17.5-30.24,14.98,5.47-9,15.2-11.38,23.89-15.39,1.07.03,2.15.05,3.22.08Z"/>
  <path class="cls-50" d="M826.76,1518.81c-2.29-.22-4.58-.44-6.87-.66,6.78-10.67,18.6-6.46,27.97-9.51,3.93-.05,7.85.04,11.64,1.28,1.5.58,2.65,1.58,3.46,2.96-3.71,9.55-11.96,4.6-18.23,5.46-5.9.81-11.98.37-17.98.48Z"/>
  <path class="cls-4" d="M946.73,1518.01c-9.11,8.72-18.48,6.74-28.17,1.39,9.39-.46,18.78-.93,28.17-1.39Z"/>
  <path class="cls-104" d="M682.43,953.6c-7.36,6.88-15.07,13.29-24.26,17.67-.41-.56-.83-1.12-1.24-1.68.31-7.65,6.06-12.21,10.07-17.78,1.29-.75,2.65-1.29,4.1-1.63,3.85-.63,7.51-.31,10.69,2.24l.65,1.19Z"/>
  <path class="cls-188" d="M1115.16,1338.12c.41-9.82,3.55-18.3,11.91-24.21,1.83,1.97,1.86,3.97.08,5.99-2.2,7.26-5.86,13.55-11.99,18.23Z"/>
  <path class="cls-5" d="M1211.62,441.49c-7.02-6.25-6.7-15.53-9.67-23.46,1.11-1.16,2.29-1.19,3.53-.23,11.29,5.5,3.29,16,6.13,23.69Z"/>
  <path class="cls-74" d="M1256.31,496.03c-3.11.25-6.51-.51-8.77,2.61-2.18,2.62-3.2.4-4.4-1.05-2.44-3.59-6.75-5.83-7.68-10.52-.89-2.09-1.78-4.18-2.67-6.27,7.84,5.08,15.68,10.16,23.52,15.24Z"/>
  <path class="cls-108" d="M1139.37,1295.91c1.96-3.95,3.92-7.9,5.88-11.85,2.54-1.59.19-7.7,5.89-6.37.83,10.43.89,20.48-11.84,24.3-1.66-2.05-1.9-4.08.08-6.09Z"/>
  <path class="cls-122" d="M381.69,853.95c-1.87,8.28-6.1,15.28-11.67,21.56-.17-9.38-1.59-19.44,11.67-21.56Z"/>
  <path class="cls-106" d="M537.62,706.48c-7.96,5.13-15.92,10.26-23.89,15.39-.95-.34-1.92-.46-2.92-.35,5.72-10.74,15.15-14.87,26.8-15.04Z"/>
  <path class="cls-190" d="M886.44,1163.55c-2,3.91-3.99,7.82-5.99,11.73-1.79,5.2-3.7,10.32-9.06,13.05-1.44.27-2.59-.2-3.44-1.4,4.85-8.83,5.75-20.79,18.49-23.38Z"/>
  <path class="cls-190" d="M850.45,1205.47c-.03-.94-.09-1.88-.17-2.82,3.43-8.01,7.54-15.26,17.68-15.71,0,0,.57.69.57.69-.07,10.29-6.93,14.62-15.39,17.54-.88.24-1.77.34-2.68.31Z"/>
  <path class="cls-50" d="M886.44,1505.78c.06,2.21.12,4.42.18,6.63-7.9-.61-15.71,3.76-23.66.46,0,0-.7-.91-.7-.91,6.18-9.43,14.51-10.43,24.18-6.17Z"/>
  <path class="cls-193" d="M562.31,1457.98l-.89-4.93c.46-.64.91-1.29,1.37-1.94,12.29-3.92,13.96,6.1,17.67,13.46-2.23,1.46-4.43,1.54-6.59-.13-3.74-2.34-6.69-6.11-11.55-6.46Z"/>
  <path class="cls-116" d="M371.8,1254.09c3.25.98,6.51,1.94,9.67-.28,1.6,2,1.82,4,0,6,2.79,4.81,3.53,9.99,2.85,15.44-5.31-6.38-9.45-13.45-12.52-21.16Z"/>
  <path class="cls-151" d="M1259.76,766.17c3.68.43,7.37.85,11.05,1.28,3.72-.29,7.23-.3,6.75,5.03-.04,1.11-.07,2.21-.11,3.32-5.25-1.05-10.48-2.22-15.76-3.11-5.33-.9-2.48-4-1.94-6.51Z"/>
  <path class="cls-163" d="M792.63,930.93c4.83,4.52,4.25,9.33,1.79,15.32-6.43-5.03-3.03-10.41-1.79-15.32Z"/>
  <path class="cls-2" d="M1223.41,748.41c-4.03-.85-8.06-1.71-12.1-2.56-2.04-1.05-4.08-2.1-6.12-3.15-1.09-1.9-2.18-3.81-3.26-5.71.88-1.21,2.04-2.04,3.46-2.5,2.2-.4,4.32-.1,6.34.84,3.93,4.31,12.42,4.58,11.68,13.08Z"/>
  <path class="cls-4" d="M1038.76,1456.32c5.21,8.5,4.71,13.27,2.18,19.26-6.28-5-3.6-10.26-2.18-19.26Z"/>
  <path class="cls-36" d="M1192.81,381.97c2.16,1.96,4.32,3.92,6.47,5.87-.08,6.07-.16,12.14-.24,18.21-5.28-7.2-6.18-15.53-6.23-24.08Z"/>
  <path class="cls-174" d="M1457.86,564.35c-4.31,4.83-7.44,7.7-13.02,5.36,1.43-7.28,5.29-8.68,13.02-5.36Z"/>
  <path class="cls-122" d="M405.34,820.74c.13.91.16,1.82.07,2.73-3.42,4.54-2.81,12.36-10.78,13.17-.5-.45-1-.9-1.5-1.35,2.07-6.53,1.08-15.63,12.21-14.56Z"/>
  <path class="cls-52" d="M1163.4,1236.2c1.83-2.37,3.65-4.74,5.48-7.11-1.36,6.37,5.5,15.34-5.88,18.53.13-3.81.26-7.62.39-11.43Z"/>
  <path class="cls-185" d="M453.72,766.76c-3.37,4.66-7.1,8.94-12.18,11.84,1.77-6.31-.63-16.89,12.18-11.84Z"/>
  <path class="cls-32" d="M455.38,1378.13c-5.19,2.94-8.67,2.06-14.62-.72,6.04-3.77,9.61-4.23,14.62.72Z"/>
  <path class="cls-36" d="M1205.48,417.8c-1.18.08-2.35.15-3.53.23-3.68-3.29-3.08-7.64-2.96-11.87,8.64.26,5.55,7.08,6.49,11.64Z"/>
  <path class="cls-103" d="M1654.31,152.44c-2.2,2.95-3.72,7.78-8.72,3.44-1.78-1.55-4.21-3.72-1.59-5.92,4.14-3.48,6.31,3.72,10.29,2.52,0,0,.02-.04.02-.04Z"/>
  <path class="cls-149" d="M621.62,1015.55c.18,1.31.37,2.62.55,3.93-.63,5.8-4.07,9.43-9.13,11.8-3.64-3.83-1.05-7.4.43-11.02.67-1.18,1.52-2.22,2.51-3.15,1.67-1.27,3.48-2.02,5.63-1.56Z"/>
  <path class="cls-78" d="M1156.59,1259.46c1.55-4.26,2.71-8.74,6.42-11.83.73,7.04.57,13.76-6.54,17.95-1.21-2.06-1.27-4.11.11-6.12Z"/>
  <path class="cls-39" d="M1156.59,1259.46c-.04,2.04-.07,4.08-.11,6.12-1.77,2.09-3.54,4.17-5.31,6.26,2.09-4-4.96-12,5.42-12.38Z"/>
  <path class="cls-185" d="M462.54,757.68c-1.05,4.88-4.88,7.05-8.84,9.09-3-8.81-.59-12.37,8.84-9.09Z"/>
  <path class="cls-61" d="M387.6,851.08c-.72-1-1.45-2-2.17-3,.67-1.14,1.35-2.28,2.02-3.42,1.69-1.52,2.65-4.15,5.64-3.68-1.74,3.41,6.14,12.06-5.49,10.1Z"/>
  <path class="cls-59" d="M429.82,790.93c-3.21,5-6.64,9.8-11.8,13.04-.2-8.09,3.89-12.29,11.8-13.04Z"/>
  <path class="cls-72" d="M597.72,1476.42c-2.02.04-4.04.08-6.06.11-3.03-.72-8.64,1.67-6.42-5.34.58-1.37,1.62-2.2,3.04-2.59,4.75.66,10.51.12,9.44,7.81Z"/>
  <path class="cls-177" d="M651.82,979.69c-1.94,1.14-3.88,2.28-5.82,3.42-.4-.61-.8-1.22-1.21-1.83.47-7.88,3.96-12.34,12.52-11.05,0,0,.86,1.03.86,1.03-2.12,2.81-4.24,5.62-6.36,8.42Z"/>
  <path class="cls-176" d="M1139.37,1295.91c-.03,2.03-.05,4.06-.08,6.09-1.99,2.04-3.99,4.08-5.98,6.12-.03-5.09-2.03-11.15,6.06-12.21Z"/>
  <path class="cls-59" d="M441.49,778.65c-2.91,5.06-6.68,9.3-11.72,12.33.38-7.46,4.62-11.26,11.72-12.33Z"/>
  <path class="cls-122" d="M393.09,840.98c-1.88,1.23-3.76,2.45-5.64,3.68.71-3.84-6.38-12.42,5.68-9.36,0,0,.95,1.03.95,1.03.63.61.84,1.22.64,1.84-.2.62-.41.93-.61.93-.76.4-1.11,1.03-1.03,1.89Z"/>
  <path class="cls-176" d="M1127.15,1319.89c-.02-1.99-.05-3.99-.07-5.99.31-3.87,2.17-6.07,6.29-5.85.14,5.11-2.44,8.78-6.21,11.83Z"/>
  <path class="cls-72" d="M573.86,1464.44c1.99.07,3.99.14,5.98.22,3.55.24,7.13.46,6.12,5.65,0,0-.72.88-.72.89-4.34-1.33-10.7.74-11.38-6.75Z"/>
  <path class="cls-39" d="M1151.13,1277.7c-1.96,2.12-3.92,4.24-5.89,6.37.37-4.86-2.22-11.15,5.94-12.23-.02,1.96-.04,3.91-.05,5.87Z"/>
  <path class="cls-163" d="M797.13,712.54c-.85-1.22-2.26-2.38-2.07-3.16.23-.95,1.75-2.14,2.8-2.23,2.03-.17,3.74,1.07,3.03,3.32-.28.88-2.18,1.25-3.76,2.07Z"/>
  <path class="cls-163" d="M794.36,908.49c2.63,3.62,2.41,7.37,1.22,11.3-4.51-3.47-.69-7.61-1.22-11.3Z"/>
  <path class="cls-90" d="M616.31,1019.56c-1.09,3.91-2.17,7.82-3.26,11.73-.81.2-1.62.38-2.43.55,0,0-1.06-.77-1.06-.77-2.95-3.93-3.1-7.93-.31-12.01,2.47-1.55,4.84-1.56,7.06.5Z"/>
  <path class="cls-106" d="M335.47,1196.43c-2.62-2.73-2.62-5.78-.91-8.98,3.52,2.68.7,5.9.91,8.98Z"/>
  <path class="cls-91" d="M1108.89,1349.89c-.12-4.48,2.34-7.2,6.12-9.03.39,4.66.1,8.86-6.12,9.03Z"/>
  <path class="cls-34" d="M1223.87,474.4c.82-.1,1.58-.39,2.26-.86,2.1,2.49,4.21,4.97,6.32,7.46-4.56,0-9.24.17-8.58-6.61Z"/>
  <path class="cls-68" d="M987.17,1141.81c-8.09-19.22-9.71-34.75-10.82-51.02-3.23-47.43,12.12-94.51,5.62-141.08-10.07-72.25-1.88-144.37-4.99-216.45-.96-22.37-4.4-45.93,1.05-66.93,6.36-24.5,2.88-48.31,4.69-72.33.47-6.28,1.25-12.8-3.93-18.46-1.93-2.1-2.8-7.33-1.56-9.85,11.11-22.4,7.59-46.8,4.46-68.98-3.75-26.62,3.43-51.93,1.57-78.01-1.92-26.92-.54-54.08-.32-81.13.04-4.6-2.03-9.87,4.22-15.67v819.92Z"/>
  <path class="cls-33" d="M1138.48,305.01c.34,5.28.68,10.56,1.02,15.85,2.88,5.36,4.05,10.69-.39,15.87-4.8-14.57-15.89-15.33-29.18-15.43-21.27-.17-42.4-4.38-63.84-5.6h84.4c-9.73-5.19-19.84-6.05-30.08-6.05-35.56,0-71.12,0-106.68,0-20.79,0-20.85,0-22.84,20.61-.38,3.97-.08,8.01-.08,12.02,0,265.45.01,530.9-.07,796.36,0,7.24,1.82,14.81-4.5,21.24-2.24,2.28-3.2,7.31.46,10.81,5.06,4.84,1.39,11.41,3.29,16.89-8-1.42-8.5,16.53-19.59,7.63-.63-.51-2.74.83-4.16,1.31.29-2.64.59-5.28.89-7.91,11.21-29.27,13.86-59.47,13.78-90.8-.64-257.08-.38-514.16-.27-771.24,0-7.73-2.36-16.3,5-22.53,54.68-.09,109.37-.21,164.05-.23,2.93,0,5.86.79,8.79,1.21Z"/>
  <path class="cls-160" d="M1108.78,1211.66c-3.51,4.13-4.81,9.19-6.05,14.29-3.09,7.29-1.42,17.28-11.64,20.53-4.55-.75-9.76-.74-9.02-7.69,12.29-4.96,16.62-14.35,15.03-27.03,3.55-3.25,2.26-8.91,6.02-12.05.54-1.23,1.8-2.67,1.51-3.67-1.3-4.53-10.42.15-9.15-7.04,1.12-6.34,8.44-9.8,8.98-16.75,16.51,3.39,10.99-10.32,13.7-17.65h0c1.49-16.65,10.43-32.75,3.48-50.05-.87-2.16-1.2-5.56-.1-7.34,10.36-16.69,5.32-35.06,5.4-52.57.47-112.69.24-225.38.23-338.07-4.3-8.02-4.51-16.04,0-24.06,3.91-.1,5.88-2.12,6-6l.03-.02c9.19-3.16,20.16,10.62,30.15-6.03-2.78,11.32,2.39,16.75,8.37,19.97,16.92,9.11,33.92,18.25,52.87,22.89,4.67,1.14,7.72-.52,10.66-3.42,4.47-4.41,9.63-4.8,12.55.61,8.92,16.55,24.46,18.83,40.61,20.12,4.05.32,6.66,1.68,7.2,5.93-2.99,3.61-7.18,3.8-11.36,4.02-14.44-.68-27.65-6.64-41.52-9.79-5.54-2.09-11.02-4.42-16.97-5.21-4.45-.57-8.64-1.89-12.46-4.27-7.62-6.75-19.46-6.06-26-14.72-5.42-4.26-11.06-7.85-18.47-6.03-6.42-4.82-13.83-7.85-20.82-11.65-8.99-4.88-10.61-.27-10.25,7.3,6.09,127.48,1.47,255.03,2.2,382.54.13,22.76-3.84,45.71-8.5,68.19-.13,1.64-.42,3.28-.79,4.88-2.38,7.17-5.27,14.22-6.46,21.77-.28,1.45-.69,2.86-1.12,4.27-3.27,11.9-6.08,24-14.28,33.82Z"/>
  <path class="cls-81" d="M729.83,712.89c.08,51-.11,102,.46,152.99.11,9.96-3.29,12.14-12.61,13.01-32.63,3.05-63.88,10.84-90.32,31.84-16,14.71-31.7,29.73-46.91,45.29-4.17,1.34-8.35,3.58-12.56.11-1.05-9.48.45-16.65,12.71-15.32,3.51.38,4.91-2.57,5.37-5.74,3.23-4.76,7.23-8.74,11.98-11.98,3.27-.54,4.79-1.07,3.8-5.65-1.99-9.2,7.13-16.92,14.68-12.62,6.35,3.62,5.03-1.08,5.52-3.9,3.8-21.7,18.68-31.33,40.74-26.39,6.29,1.41,11.64-.02,16.13-5.18,6.41-7.37,13.25-8.31,22.36-2.96,8.95,5.26,17.92,5.47,17.06-9.46-1.84-8.12,3.66-14.15,6.01-21.07,0-22.05,0-44.09,0-66.14-3.87-5.01-3.59-10.03,0-15.04,0-2,0-4.01,0-6.01-1.58-10.45-9.72-14.34-18.04-18.04,0-2,0-4,0-6.01-.99-1.48-.48-2.6.74-3.67,1.52-1.33,3.67.22,5.14-1.2-1.56.34-3.21.24-4.7.74-1.99.67-2.9,2.62-4.18,4.12-2,0-4.01,0-6.01,0-4.76,2.64-11.34.7-15.03,6.01-3,0-6.01,0-9.01.01-14.52,7.32-29.49,13.5-45.12,18.04-6.24,1.32-14.71-4.07-18.04,6-2.97,4.07-9.1,1.84-12.03,6.01-.21,2-.42,4-.63,6-12.55-2-22.85,9.68-35.69,5.87,4.13-11.86,16.45-12.06,25.03-17.61,8.69-2.22,16.32-6.64,23.7-11.56,14.82-9.22,30.86-15.29,48-18.52l.03.15c15.92-6.45,32.53-10.68,48.97-15.53,7.92-1.72,15.44-.73,22.48,3.39Z"/>
  <path class="cls-87" d="M393.54,1235.78c-11.16-27.56-14.75-56.67-18.27-85.89-3.55-29.47.17-58.79.33-88.18,5.43-5.28-5.31-15.28,5.54-18.97,2.28,7.32,4.67,14.62.32,24.41,8.09-5.95,5.38-11.94,6.04-17.09.45-3.52.54-7.63,5.15-7.63,3.72,0,6.99,2.52,6.62,6.66-2.3,25.89,5.96,52.41-4.61,77.84-.91,2.19-1.8,5.65-.75,7.18,9.35,13.59,5,28.85,5.36,43.36.23,9.42,4.86,10.81,12.27,10.21,1.12,7.32-4.26,14.18-8.21,15.92-16.33,7.2-10.42,16.37-4.59,26.49.89,1.54.53,3.81.74,5.74-2,1.73-3.98,1.73-5.95-.05Z"/>
  <path class="cls-120" d="M1115.13,706.57v382.76c-2,0-4,0-6.01,0v-382.76c2-1.78,4.01-1.78,6.01,0Z"/>
  <path class="cls-168" d="M562.71,1148.29c-2.53-2.21-5.06-4.41-7.73-6.75-5.08,4.56,2.12,7.52,1.56,11.63-8.98.54-4.05-10.29-9.86-12.09-6.18,4.1.4,9.92-2.79,18.04-4.59-24.03-18.79-43.07-4.09-65.25-9.92-.83-6.43,6.64-12.57,8.26-3.33-27.9-5.25-54.62,16.56-76.85,4.5,4,3.88,9.45,4.19,14.64.73,19.86-2.39,39.94,3.46,59.5.64,1.47,1.1,3.01,1.46,4.56,1.47,9.95,5.15,19.27,8.49,28.68,1.8,5.07,4.99,10.08,1.33,15.63Z"/>
  <path class="cls-88" d="M1036.8,1334.62c1.21,5.47,8.97,8.32,6.14,15.4-1.3,1.47-3.02,1.86-4.84,1.95-6.53,2.28-2.26,8.42-4.36,12.29-2.41,7.88-8.74,11.63-15.67,14.57-9.71,4.13-17.98,9.88-23.22,19.32-12.14-8.52-21.8-4.76-30.05,6.04-3.5,6.2-9.58,9.06-15.54,12.08-5.45,5.89-12.77,8.97-19.45,13.01-3.34,2.02-7.44,2.37-10.58,4.85-1.13.79-2.35,1.37-3.66,1.79-2.19.34-4.16-.08-5.77-1.69-.94-2.13-.86-4.1.88-5.81,4.07-2.94,8.13-5.89,12.2-8.83,9.76-6.7,19.78-12.96,30.39-18.24,5.22-1.06,8.83-4.42,11.99-8.42,12.16-13.4,26.58-24.02,41.65-33.84h0c6.44-8.63,13.54-16.63,21.99-23.39,2.51-1.17,5.03-2.32,7.88-1.1Z"/>
  <path class="cls-192" d="M1283.21,736.77c4.13-.08,8.26-.15,12.39-.23,22.66.76,45.63,1.11,66.76,10.09,10.73,4.56,20.38-2.53,30.41.45.09.03,1.76-3.32,1.73-5.07-1.09-55.63,3.37-111.35-2.8-166.88,2.15.92,4.3,1.84,6.45,2.76,3.56,3.47,3.78,8,3.76,12.51-.19,47.35,4.89,94.57,3.55,141.93-.21,7.29.84,15.21-5.72,20.88-15.73,4.56-31.53,3.34-47.33.45-22.98-1.49-45.64-5.33-68.25-9.63-2.3-2.16-2.61-4.58-.95-7.26Z"/>
  <path class="cls-194" d="M679.16,1458.3c14.44,5.45,28.45,11.36,43.71.68,4.02-2.82,12.9-2.78,17.3-.22,15.26,8.88,31.61,2.57,47.13,5.39.03.89.06,1.79.09,2.68-10.8,7.77-23.73,7-35.8,7.53-40.97,1.82-81.52-2.02-121.31-12.43-12.11-3.72-24.41-6.92-36.27-11.49-4.89-1.88-10.66-2.87-11.45-9.66,0,0,.61-.93.61-.93,8.36-1.95,14.58,4.65,22.29,5.57,4.98.59,9.77,1.53,14.6-.55,11.09-4.77,10.6-4.51,15.75,6.22,3.27,6.81,10.63,3.45,16.27,4.2,9.07.61,18.53-2.32,27.07,3.01Z"/>
  <path class="cls-102" d="M1082.07,1238.79c3.21,2.09,6.43,4.18,9.64,6.27-1.18,15.58-10.41,27.09-19.51,38.67-9.8,13.03-19.59,26.06-29.39,39.08-2.45,5.11-6.36,8.84-11.14,11.75-4.33.86-6.92,8.05-12.73,3.48,0-6.51.41-13.05-.1-19.52-.72-9.18,4.25-12.12,11.84-10.35,14.87,3.48,19-6.74,23.41-17.01,1.01-2.36-1.99-6.71,2.95-7.05,13.68-.94,11.28-13.73,16-21.25,2.13-4.95,1.41-11.05,6.02-15.01.11-3.32-.52-6.88,3.01-9.06Z"/>
  <path class="cls-160" d="M1124.17,706.6v357.12c-1,0-2.01,0-3.01,0v-357.16c1.02-1.04,2.02-1.03,3.01.03Z"/>
  <path class="cls-194" d="M787.31,1464.15c2.33-4.79,11.43-.38,11.24-7.54-.15-5.73-6.03-3.68-9.54-4.67-2.78-.78-4.17-2.54-4.22-5.36-.04-2.71.81-5.12,3.72-5.67,4.4-.82,10.92-2.38,12.39,2,5.78,17.27,19.73,9.15,29.11,8.4,9.05-.73,19.44-4.36,26.42-12.46,10.71-12.42,24.44-1.31,36.35-4.51.83,4.92-3.14,6.16-6.18,8.12-11.37,4.46-22.64,9.26-34.46,12.5-6.21,1.18-12.28,2.88-18.18,5.2-1.35.54-2.74.96-4.15,1.33-8.66,2.16-17.49,3.53-26.14,5.8-5.61.78-11.26,1.82-16.02-2.6l-.35-.55Z"/>
  <path class="cls-6" d="M820.39,1289.82c9.1-7.17,19.78-6.14,30.32-5.82-.16.8-.31,1.6-.44,2.41-7.89,9.67-20.18,5.47-29.87,9.46v-.02c-28.03,7.11-56.05,7.06-84.07-.09h.1c-8.61-1.8-17.16-3.79-25.11-7.7-2.6-1.28-3.68-3.08-1.24-5.59,12.33-7.17,23.04,3.29,34.74,3.15,25.26.31,50.72-3.26,75.56,4.19Z"/>
  <path class="cls-37" d="M628.03,748.67c13.24-10.51,28.48-16.03,45.12-18.04q-10.82,13.81,2.49,22.4c-16.97,3.15-32.77,1.8-48.33,1.23-6.13-.22,1.24-3.5.72-5.59Z"/>
  <path class="cls-11" d="M898.5,1253.8c7.19-7.24,12.62-16.7,23.81-18.9,2.67,10.68-3.4,18.09-11.33,22.24-9.53,5-17.45,11.45-25.19,18.57-8.3,7.63-18.52,9.17-29.34,8.12,5.07-10.42,16.21-13.19,24.87-18.74,5.76-3.69,11.77-7.04,17.18-11.31Z"/>
  <path class="cls-123" d="M1139.11,336.73c.13-5.29.26-10.58.39-15.87.81.46,1.63.91,2.45,1.35,3.14,3.2,1,7.34,1.92,10.93,7.09,8.26,3.86,19.11,7.12,28.33,1.47,18.49,13.55,33.05,18.62,50.2-8.68-2.14-9.75-11.4-15.38-16.44-5.65-5.06-11.94-9.94-4.35-18.75,1.95-2.26-3.62-3.96-4.68-6.68-3.63-3.36-2.8-7.83-3-12.05-1.75-6.9-3.89-13.74-3.08-21.02Z"/>
  <path class="cls-27" d="M1006.93,1359.11c-11.96,13.64-25.91,24.84-41.65,33.84-.51-2.77-7.52-4.1-.57-8.7,6.16-4.08,20.33-5.34,11.61-19.3-.26-.41,3.79-4.94,5.01-4.6,8.78,2.46,16.99-3.86,25.6-1.23Z"/>
  <path class="cls-83" d="M412.42,1186.84v-82.39c8.18,11.73,6.82,75.87,0,82.39Z"/>
  <path class="cls-49" d="M544.3,1041.18c-.17-5.3-.35-10.6-.52-15.91.79-16.45,8.96-30.43,15.11-45.09h-.01c3-8.01,6.01-16.04,9.01-24.07,3.96-1.01,7.93-2.02,11.89-3.04,2.7,10.58-6.87,16.32-9.86,24.67-1.95,5.44-5.06,10.48-7.53,15.76-4.3,9.51-7.42,19.4-9.54,29.61-.28,1.39-.66,2.74-1.07,4.08-2.39,4.71.07,12.04-7.48,13.97Z"/>
  <path class="cls-37" d="M706.22,730.62c19.21.13,19.89.81,18.04,18.04-12.93,2.85-22.12-8.24-35.72-6.54,5.02-9.15,16.6-.88,17.68-11.51Z"/>
  <path class="cls-178" d="M953.28,1401.36c-8.83,8.25-19.01,14.25-30.39,18.24-6.95-3.39-13.93-6.75-20.85-10.2-3.32-1.65-3.82-4.83-2.48-7.61,1.55-3.22,3.99-1.67,5.91.16,5.22,4.99,14.79-1.17,19.27,8.67,1.55,3.41,12.63.78,14.48-4.99,3.17-9.9,8.95-4.53,14.06-4.28Z"/>
  <path class="cls-12" d="M1187.72,435.84c-.05.86-.11,1.73-.18,2.59,1.3,1.35,1.18,2.54-.39,3.57-1.85-.55-3.69-1.14-5.55-1.63-5.78-1.52-16.94,4.85-16.48-1.65.61-8.64-5.2-19.7,4.45-27.1,6.05,8.07,12.1,16.14,18.15,24.21Z"/>
  <path class="cls-119" d="M562.71,1148.29c-3.8-14.99-13.29-28.29-13.25-44.42,12.18-2.71,17.3,7.74,19.82,14.77,3.2,8.91,4.66,20.02-1.15,29.67-.25,1.42-.5,2.85-.75,4.27-1.56-1.43-3.11-2.86-4.67-4.29Z"/>
  <path class="cls-31" d="M507.77,802.82c12.94-6.38,19.33-20.8,33.18-26.49,5.17-2.13,9.75-3.98,15.24-3.34-12.46,13.24-28.93,21.42-42.31,33.5-1.57,1.09-2.37,3.45-4.89,3.01-2.73-1.8-3.65-3.93-1.23-6.68Z"/>
  <path class="cls-76" d="M432.44,898.78c5.97-19.49,15.22-36.72,33.1-47.99,1.11-.98,2.18-.97,3.19.16-6.98,10.21-13.95,20.42-20.93,30.64-3.26,6.36-4.75,13.92-12.01,17.53l-.05.15c-.6.28-1.21.57-1.81.85-.5-.45-.99-.89-1.49-1.34Z"/>
  <path class="cls-137" d="M898.5,1253.8c-10.02,15.6-28.84,18.91-42.05,30.05-1.94.08-3.87.15-5.8.23,5.41-12.92,17.69-18.45,28.93-23.24,5.9-2.51,12.08-6.26,18.93-7.04Z"/>
  <path class="cls-28" d="M411.11,946.79c4.42,13.78-8.96,24.83-5.34,38.28-5.27,1.41-1.75-4.38-4.65-4.69-5.48,2.17,5.02,17.64-9.93,11.95-4.93-10.69,2.99-18.09,6.79-26.54,4.11-6.51,4.53-15.59,13.13-19Z"/>
  <path class="cls-37" d="M724.25,754.67c0,5.01,0,10.03,0,15.04-6.12,7.96-1.69,17.18-3.02,25.73-.47,3.03-.66,6.3-4.45,6.4-1.33.04-3.29-1.93-3.99-3.43-3.77-8.11,3.84-36.62,11.46-43.73Z"/>
  <path class="cls-124" d="M736.34,1295.76c28.02,4.16,56.04,4.3,84.07.09.36,2.17,2.45,5.74-1.39,5.77-24.72.16-49.45-.02-74.17-.49-3.22-.06-6.6-2.09-8.5-5.36Z"/>
  <path class="cls-167" d="M381.15,1042.73c-5.19,5.35-.34,13.62-5.54,18.97-.09-3.13-.19-6.26-.28-9.39-4.26-9.03-4.4-18.04.13-27.02,3.71-7.14,6.67-14.13,6.34-22.79-.44-11.31,4.05.06,6.11-.78-2.25,13.68-4.5,27.35-6.75,41.02Z"/>
  <path class="cls-9" d="M411.11,946.79c-3.65,6.2-7.3,12.4-10.95,18.6-1.29,1.03-2.49.94-3.62-.26.9-11.84,10.63-20.64,11.03-32.93.14-4.38,4.41-8.44,9.86-9.26,1.36.57,2.2,1.58,2.52,3.03-.81,1.99-1.63,3.98-2.44,5.98-2.83,4.66-.95,11.32-6.32,14.9,0,0-.07-.05-.07-.05Z"/>
  <path class="cls-207" d="M510.23,808.58c1.22-.7,2.43-1.4,3.65-2.09-.7,14.75-15.26,30.57-29.91,32.52-1.83-1.7-2.09-3.32.23-4.82l-.37-1.14c.8-.97,1.68-1.85,2.63-2.67,3.42-1.84,5.62-4.72,7-8.31,3.56-7.03,9.76-10.76,16.77-13.49Z"/>
  <path class="cls-83" d="M413.02,1089.34v-43.84c5.2,14.53,4.95,29.15,3.72,43.78-1.24.02-2.48.04-3.72.06Z"/>
  <path class="cls-87" d="M414.45,1213.88c1.24,12.66,8.48,26.22-5.1,38.83-4.48-14.71,6.86-26.17,5.1-38.83Z"/>
  <path class="cls-145" d="M393.54,1235.78c1.98.02,3.97.03,5.95.05.17,17.15,10.89,30.85,15.46,46.59,1.09,3.77,2.78,7.19,2.24,11.22-11.85-17.66-18.51-37.45-23.65-57.86Z"/>
  <path class="cls-148" d="M679.16,1458.3c-8.99-1.33-18.61,3.01-27.07-3.01-.78-2.67-5.7-3.21-3.97-6.85.54-1.13,4.18-2.24,4.84-1.64,8.48,7.7,19.66,3.81,29.04,7.17,1.31.47,4.7.79,2.69,3.46-.81,1.07-3.63.63-5.53.87Z"/>
  <path class="cls-158" d="M1247.77,501.8c14.22,7.45,23.22,21.15,36.12,30.18-14.45,2.19-18.52-11.56-27.43-17.87-2.7-2.47-6.67-3-9.05-5.95-3.38-2.32-.1-4.25.36-6.35Z"/>
  <path class="cls-162" d="M1331.63,550.19c0,1.91,0,3.81,0,5.71-10.02-4.88-20.04-9.75-30.06-14.63,8.7-2.89,22.98,1.34,30.06,8.92Z"/>
  <path class="cls-37" d="M724.25,835.85c2.2,8.22-3.13,14.3-6.01,21.07-2.48-.43-6.48-1.94-5.13-3.86,8.89-12.77,3.03-27.61,6.19-42.03,4.9,8.36-1.75,17.88,4.96,24.82Z"/>
  <path class="cls-85" d="M675.83,1266.15c11.77-2.82,18.87,10.58,30.35,8.75.92.62,1.56,1.45,1.95,2.48.43,1.6.45,3.2.05,4.81-.41,1-1,1.89-1.76,2.67-10.46-5.8-23.03-8.16-30.59-18.71Z"/>
  <path class="cls-194" d="M772.91,1441.73c-6.01,6.39-8.73,13.44-16.28,11.66-3.68-.87-3.04-6.26-1.59-8.99,3.65-6.87,9.66-3.82,17.87-2.67Z"/>
  <path class="cls-99" d="M1079.06,1247.84c-.03,5.8.98,12.01-6.02,15.01-9.49-3.2-7.14-10.99-4.6-16.45,3.17-6.82,6.6,3.36,10.62,1.44Z"/>
  <path class="cls-31" d="M586.67,754.95c-8.34,5.87-16.68,11.74-25.03,17.61-1.84.19-3.67.37-5.51.57,5.25-14.33,17.74-16.5,30.53-18.17Z"/>
  <path class="cls-30" d="M419.94,925.97c-.84-1.01-1.68-2.02-2.52-3.02,1.74-10.08,2.88-20.54,15.02-24.16,0,0,.7.79.7.79,1.45,9.84-3.63,16.77-10.22,23.04-.99,1.12-1.99,2.23-2.98,3.35Z"/>
  <path class="cls-167" d="M396.54,965.14c1.21.08,2.41.17,3.62.26-1.72,9.4-8.85,17-8.96,26.94-.81,3.19,0,6.98-3.42,9.19-.14-12.86-3.35-26.47,8.77-36.38Z"/>
  <path class="cls-105" d="M525.35,1388.86c10.15-4.56,16.86-3.34,21.54,3.65,3.54,5.29-1.11,6.58-9.48,2.25-3.26-1.69-6.6-3.24-12.06-5.91Z"/>
  <path class="cls-27" d="M1018.94,1338.04c4.31-1.87,8.61-3.74,12.92-5.62.75,2.17.89,4.15-1.69,5.24-7.74,7.15-15.49,14.3-23.23,21.45-1.79-10.33,11.07-12.3,12.01-21.07Z"/>
  <path class="cls-34" d="M1199.9,453.39c9.34,5.43,16.37,13.49,23.9,20.99-15.48,1.56-17.71-11.97-23.9-20.99Z"/>
  <path class="cls-124" d="M820.41,1295.87c9.96-3.15,19.91-6.3,29.87-9.46.99,7.09-2.25,9.87-9.2,9.57-6.88-.3-13.78-.09-20.66-.11Z"/>
  <path class="cls-121" d="M422.91,922.62c3.41-7.68,6.81-15.36,10.22-23.04.85-.27,1.71-.37,2.6-.31,1.18,8.92-1.87,16.73-6.04,24.37-3.52,6.45-4.35-1.96-6.77-1.02Z"/>
  <path class="cls-208" d="M1124.17,706.6c-1-.01-2.01-.02-3.01-.03,1.22-9.14-3.23-19.15,4.2-27.32.08-.09.92.24,1.04.52.36.87.53,1.82.77,2.74,0,8.02,0,16.04,0,24.06-1,0-1.99.01-2.99.03Z"/>
  <path class="cls-187" d="M885.57,1439.81c2.4-1.82,4.81-3.65,7.21-5.47,5.97-1.97,11.94-3.94,17.91-5.92-.03,1.92-.05,3.85-.08,5.77-6.28,11.12-14.67,12.78-25.04,5.61Z"/>
  <path class="cls-107" d="M708.8,1284.08c9.21,3.89,18.43,7.79,27.64,11.68-11.69.98-22.53-.35-30.01-10.92-.17-.57-.31-1.16-.41-1.75,1.22-.49,2.16-.21,2.79.99Z"/>
  <path class="cls-160" d="M1115.13,706.57c-2,0-4,0-6.01,0,.71-6.4-1.6-13.28,3.01-21.62,4.6,8.34,2.3,15.22,3,21.62Z"/>
  <path class="cls-34" d="M1187.16,442c.13-1.19.26-2.38.39-3.57,5.04,4.23,9.79,8.7,12.38,14.96-9.24,1.79-12.93-2.64-12.76-11.39Z"/>
  <path class="cls-135" d="M468.73,850.94c-1.06-.05-2.12-.11-3.19-.16.13-8.02.23-16.07,12.22-12.01,1.56,4.04-1.29,6.33-3.51,8.88-1.84,1.1-3.68,2.2-5.52,3.3Z"/>
  <path class="cls-82" d="M597.95,923.08c-1.63,6.36-5.63,10.35-11.98,11.98-1.36-9.35,2.62-13.35,11.98-11.98Z"/>
  <path class="cls-37" d="M703.21,724.6c4.7-11.28,12.43-4.81,21.02-4.65-5.93,8.45-13.92-3-18.02,4.66-1,0-2,0-3-.01Z"/>
  <path class="cls-160" d="M1118.15,1154.6c-4.14-2.31-9.58-3.52-8.68-10.14.3-2.21,2-4.2,3.75-2.97,4.39,3.07,5.09,8.05,4.93,13.11h0Z"/>
  <path class="cls-155" d="M435.78,899.12c3.97-5.87,6.04-13.04,12.01-17.54.32,8.81-1.88,15.89-12.01,17.54Z"/>
  <path class="cls-173" d="M1103.11,1199.7c-.57,4.73,2.04,11.06-6.02,12.05-1.5-5.77-1.41-10.74,6.02-12.05Z"/>
  <path class="cls-121" d="M411.18,946.84c.08-5.83,2.17-10.8,6.32-14.9.65,6.14,4.82,13.76-6.32,14.9Z"/>
  <path class="cls-33" d="M1142.2,357.75c4.4,3.17,2.6,7.88,3,12.05-8.48-2.15-7.13-6.75-3-12.05Z"/>
  <path class="cls-37" d="M597.97,760.69c.98-8.05,7.3-5.44,12.03-6.01-.98,8.06-7.3,5.44-12.03,6.01Z"/>
  <path class="cls-100" d="M474.25,847.65c1.17-2.96,2.34-5.92,3.51-8.87,1.52-2.41,2.85-5.09,6.44-4.59-.08,1.61-.16,3.22-.23,4.82-2.52,3.69-5.01,7.41-9.72,8.64Z"/>
  <path class="cls-33" d="M994.65,1164.04c-.5,1.79-.43,4.42-3.27,3.73-2.2-.53-2.49-2.8-2.23-4.77.25-1.86.4-4.43,3.22-3.75,2.2.53,2.35,2.77,2.27,4.79Z"/>
  <path class="cls-160" d="M1100.64,704.96c-2.84.23-2.99-1.97-3.23-3.83-.25-1.96.04-4.21,2.23-4.73,2.82-.67,2.94,1.88,3.2,3.72.27,1.97-.11,3.83-2.21,4.84Z"/>
  <path class="cls-37" d="M682.16,730.61c1.96-9.64,9.74-4.72,15.03-6.01-4.18,4.08-9.74,4.72-15.03,6.01Z"/>
  <path class="cls-102" d="M1015.25,1335.76c-1.83.77-3.01,1.69-4.18,1.67-2.21-.03-3.46-1.54-2.31-3.59.46-.81,2.47-1.27,3.6-1.03.96.2,1.67,1.63,2.89,2.95Z"/>
  <path class="cls-160" d="M1117.05,676.53c.76-5.45,3.34-7.16,6.77-8.3,2.06,5.32-2.29,5.87-6.77,8.3Z"/>
  <path class="cls-170" d="M630.81,1227.29c5.56,1.85,8.65,5.67,9.24,11.51-4.72-2.52-8.47-5.82-9.24-11.51Z"/>
  <path class="cls-49" d="M558.89,980.19c-1.8-.02-4.73,3.4-4.99-1.02-.1-1.76,2.37-3.66,3.67-5.5.44,2.18.87,4.36,1.31,6.54h.01Z"/>
  <path class="cls-160" d="M1133.17,676.5c-3.83-3.03-1.78-4.89,1.36-6.39,1.22-.58,3.6-.87,3.12.81-.6,2.1-2.88,3.73-4.44,5.56,0,0-.03.02-.03.02Z"/>
  <path class="cls-25" d="M1244.15,496.05c1.13.86,2.27,1.73,3.4,2.59.05,1.08.11,2.16.16,3.24-3.18-.45-6.82,1.85-9.38-1.26-.33-.4,1.95-2.93,3.02-4.47.9-1.14,1.83-1.22,2.8-.1Z"/>
  <path class="cls-25" d="M1247.41,508.15c4.37-.07,7.35,1.98,9.05,5.95-4.36.06-8.71.11-9.05-5.95Z"/>
  <path class="cls-34" d="M1244.15,496.05c-.93.02-1.87.05-2.8.1-6-.41-6.01-4.7-5.89-9.08,2.9,3,5.79,5.99,8.69,8.99Z"/>
  <path class="cls-170" d="M649.05,1247.97c5.7.23,8.62,3.26,8.99,8.89-3.98-1.97-7-4.9-8.99-8.89Z"/>
  <path class="cls-191" d="M345.45,1169.61c-3.01-14.83-10.82-28.93-7.23-45.1-1.58,2.99-3.15,5.98-4.73,8.97-5.62-14.82-2.72-30.49-4.15-45.71-1.69-18.09-.05-36.46-2.31-54.62.15-2.59.29-5.18.44-7.77,5.1-13.64,3.74-28.62,8.83-42.26-.03-3.85.58-7.6,1.82-11.24,3.42-5.31,4.68-11.18,4.47-17.44,1.54-4.1.76-10.96,8.75-7.34,12.13,8.79,6.47,20.41,3.37,30.33-2.21,7.05-5.3,12.63.6,18.99,1.22,1.31,2.12,3.71,1.88,5.44-3.64,27.32,9.87,53.3,6.23,80.59,0,3,0,6-.01,9.01-3.55,2.9-7.4,3.44-11.55,1.48-1.56-1.27-3.18-2.88-3.16-4.85.29-25.33-7.21-49.96-7.16-77.17.81,30.78,1.92,59.64,5.67,88.32.42,3.2,2.77,1.26,4.36.23,5.12-1.98,8.58.75,11.84,4.03,0,6.01,0,12.01.01,18.02,4.72,7.63,4.52,14.89-2.35,21.04-4.97,4.45-5.3,10.17-5.61,16.07-1.37,5.47.45,13.87-10.03,10.99Z"/>
  <path class="cls-125" d="M729.83,712.89c-7.75.15-15.51.3-23.26.45-6.11-.92-12.47,3.81-18.42-.8-2.3-9.76-10.25-4.72-15.77-5.95-5.15-1.15-12.48,3.01-14.27-6.04,10.89-7.48,23.33-4.67,34.81-3.67,11.62,1.01,16.93-1.82,16.48-13.66-.1-2.59,1.11-4.8,2.81-6.72-1.73-8.99-8.94-5.57-14.15-5.91-7.28-.47-14.62-.12-21.93-.12,13.08-10.81,29.13-4.91,43.66-7.58,5.33-.98,4.34,4.29,4.38,7.41.1,8.72,2.43,17.29.41,26.24-1.03,4.57-2.67,11.42,5.41,13.16-.06,1.06-.11,2.12-.17,3.19Z"/>
  <path class="cls-143" d="M712.21,676.5c-.59,9.29,1.41,18.73-1.41,28.27-17.32-7.77-35.24-2.8-52.69-4.23-1.09-8.82,2.27-13.27,11.64-12.07,1.96.25,3.97.08,5.96.03,13.36-.37,28.18,3.68,36.5-12.01Z"/>
  <path class="cls-172" d="M351.36,947.09c-6.07.33-5.96,4.72-5.95,9.05-1.86,1.76-3.71,1.79-5.58,0,6.62-26.35,15.66-51.74,29.63-75.2.55,16.59-7.93,30.77-13.7,45.31-2.84,7.14-4.13,13.63-4.4,20.83Z"/>
  <path class="cls-65" d="M601.36,735.19c-8.51.96-11.73,15.8-22.91,8.6-3.54-2.28-6.58-7.13-3.21-9.83,8.06-6.46,17.18-3.89,26.12,1.24Z"/>
  <path class="cls-183" d="M658.36,724.87c-15.45,7.6-31.6,13.39-48,18.52-.31-1.91-.62-3.83-.94-5.74,17.04-1.45,29.99-18.59,48.93-12.78Z"/>
  <path class="cls-70" d="M688.15,712.54c6.08,1.58,12.42-2.86,18.42.8-15.77,5.1-31.79,9.13-48.18,11.68,8.01-8.71,18.01-12.69,29.76-12.47Z"/>
  <path class="cls-135" d="M487.01,833.01c-1.06.01-2.12.03-3.18.04-.02-16.41,13.11-22.41,23.94-30.23.82,1.92,1.64,3.84,2.46,5.76-4.83,5.08-9.67,10.17-14.5,15.25-2.17,3.76-5.46,6.45-8.72,9.17Z"/>
  <path class="cls-62" d="M591.93,694.5c3.07-10.8,12.05-3.96,18.04-6.05,0,.49.06.99,0,1.48-.66,5.53,2.47,13.43-5.17,14.75-1.92.33-11.64-2.84-12.88-10.18Z"/>
  <path class="cls-92" d="M375.45,1025.29c-.04,9.01-.08,18.02-.12,27.02-1.96,1.02-3.91,2.04-5.87,3.06,0-9.83-.48-19.69.13-29.48.51-8.32,3.85-.47,5.86-.6Z"/>
  <path class="cls-201" d="M489.39,739.48c5.62-7.13,14.23-10.27,21.06-15.79.62,10.34-9.21,17.72-21.06,15.79Z"/>
  <path class="cls-61" d="M394.12,839.09c-.04-.92-.05-1.84-.03-2.77,3.77-4.29,7.55-8.57,11.32-12.86.08,6.2,1.15,12.29-4.68,17.36-4.15,3.61-4.51-1-6.61-1.73Z"/>
  <path class="cls-184" d="M1157.23,1139.56h-6.01c-7.81-9.3-1.32-20.01-3.04-29.19-1.65,13.48-1.87,13.65-11.38,7.73-2.28-14.57,1.05-28.96,1.03-43.45-.16-118.13-.07-236.25-.14-354.38,0-7.63-.63-15.21,7.42-19.67,13.71,9.96,4.01,20.01.12,30.04,6.13,7.64,4.61,16.24,3.13,24.84-.4,98.6,0,197.21-.14,267.1,0-63.85-.02-156.43.05-249.01,0-5.95-.94-12.04,1.47-17.82,2.15-2.79,4.68-2.96,7.49-1.08,4.16,5.25,2.94,11.48,2.95,17.38.07,116.71.07,233.43,0,350.14,0,5.9,1.22,12.13-2.95,17.37Z"/>
  <path class="cls-101" d="M928.73,1428.22c3.09-8.58,14.71-6.78,18.16-14.93,3.1-1.28,5.14.3,6.92,2.56.19,5.17,1.7,8.02,7.11,3.97,3.73-.91,7.07-.33,9.89,2.39-3.98,6.94-6.98,11.63,5.81,12.98,6.38.67,18.35,1.79,18.28,14.23.77,2.26-.33,4.52-2.24,4.3-4.8-.55-3.43,2.48-3.48,4.86l-.06-.02c-3.9,2.57-9.47,2.1-12.22,6.75-1.75,1.18-3.7,1.78-5.78,2.05-5.96,1.5-11.14-1.83-17.25-3-.35,4.86,5.64,4.6,6.17,8.21.17,1.45-.28,2.68-1.34,3.68l.31.68c-7.24,5.57-15.7,8.54-24.2,11.45-1.86.06-3.72.11-5.58.17-12.74,6.47-24.87.65-37.16-1.84-23.78,8.43-50.72,1.28-73.56,15.59-6.08,3.81-15.8,3.88-18.1-6.13-2.23-9.7,6.18-10.91,13.17-12.19,3.94-.72,7.77-1.74,11.41-3.38,19.79-1.14,38.77-7.28,58.61-9.28,17.2-1.74,37.73-1.26,47.76-21.82,4.04-8.27,4.82-14.99-2.64-21.28Z"/>
  <path class="cls-169" d="M1157.23,1139.56c0-128.3,0-256.59,0-384.89,7.43,1.07,5.97,6.87,5.97,11.62.05,120.55.05,241.11,0,361.66,0,4.75,1.46,10.56-5.98,11.61Z"/>
  <path class="cls-18" d="M1175.34,748.63c7.38,1.16,5.88,6.96,5.88,11.69-.03,106.39-.14,212.77-.23,319.16-6.73-3.54-5.71-9.89-5.71-15.84,0-82.64,0-165.28,0-247.92,0-22.36.04-44.73.06-67.09Z"/>
  <path class="cls-139" d="M1145.11,700.61c-4.74,7.77-6.01,16.04-6,25.24.24,131.89.12,263.78.08,395.67-.15.65-.3,1.3-.44,1.96-3.66,8.29-.62,17.41-3.18,25.85-.58,1.33-1.43,2.43-2.56,3.34-2.18.84-4.19.65-5.96-.98,18.94-156.32,2.19-313.37,10.17-471.46,10.87,6.74,24.47,8.01,31.59,20.32-8.8,2.02-14.01-6.31-21.75-7.6-2.37-.4-4.73-5.23-6.9-.73-2.01,4.16-.46,7.8,4.95,8.39Z"/>
  <path class="cls-46" d="M1036.98,1350.05c1.99,0,3.98-.02,5.96-.03,11.13,4.93,16.71,11.15,5.54,21.86-2.57,2.46-7.56,5.92.38,8.18,3.33.95,6.14,2.22,2.87,5.85-2.07,2.3-3.6,4.92-8.52,3.65-26.98-6.99-39.61,1.98-42.34,29.17-.34,3.4.51,7.45-3.9,8.71-1.66.48-4.55.21-5.44-.88-2.73-3.35,2.34-4.82,2.52-7.51.45-6.95.56-13.93.81-20.89-1.86-17.18,13.69-17.9,23.25-23.55,5.63-3.33,11.02-5.77,12.86-12.52,4.31-2.86,1.64-9.2,6.01-12.03Z"/>
  <path class="cls-204" d="M1139.19,1121.51c7.42-1.01,5.66-6.8,6.03-11.52.44-5.56-1.21-11.49,1.58-16.64,1.47.03,2.95.05,4.42.08,0,15.38,0,30.76,0,46.13-7.33,1.03-5.92,6.73-5.97,11.47-.12,10.39.04,20.79-.08,31.18-.06,4.73,1.38,10.44-5.96,11.47-1.49.24-2.26-3.78-2.7-1.7-1.37,6.5,1.19,13.68-3.32,19.75-.82,3.75-2.27,7.65-5.42,1.82-1.78-3.29-1.42-7.69-6.66-7.84-6.67-10.04-.62-20.09-.03-30.13h-.1c4.8-3.85,2.45-10.26,5.3-14.74,5.35-.76,3.84-6.7,6.87-9.26h0c6.88-9.05-.83-21.01,5.99-30.07l.04.02Z"/>
  <path class="cls-117" d="M1072.2,1283.72c6.5-12.89,13.01-25.78,19.51-38.67,3.67-6.37,7.35-12.74,11.02-19.11,1.51,25.43-14.27,41.73-30.53,57.78Z"/>
  <path class="cls-195" d="M1157.24,754.67c-2,0-4,0-6.01.01-2.01,1.77-4.01,1.76-5.99-.04,0-8,0-16,0-24,20.93-.45,8.51,15.77,12.01,24.03Z"/>
  <path class="cls-45" d="M970.81,1422.22h-12.03c-2.97-1.02-3.76-4.24-6.01-5.98-1.96-.98-3.92-1.96-5.88-2.94,5.97-3.03,11.95-6.06,17.92-9.09,1.61,6.14,8.31,10.58,6.01,18.02Z"/>
  <path class="cls-71" d="M1187.28,706.56c9.82,2.63,19.25,6.21,27.97,11.53-.58,2.47-.99,5.02-2.97,6.9-1.67,1.2-3.5,1.47-5.46.87-.49-.42-.98-.84-1.46-1.26-.45-5.19-4.01-6.37-8.28-5.98-9.44.86-10.31-4.97-9.79-12.06Z"/>
  <path class="cls-165" d="M1121.08,1175.57c0,10.04.02,20.09.03,30.13-5.27-.42-6.85,6.81-12.33,5.95,4.1-12.03,8.2-24.06,12.3-36.09Z"/>
  <path class="cls-10" d="M1031.04,1416.28c-4.46-2.12-6.89,8.12-11.06,2.41-2.44-3.34-2.43-9.1.96-12.5,3.4-3.4,9.16-3.41,12.5-.96,5.71,4.18-4.52,6.6-2.41,11.06,0,0,.01-.01.01-.01Z"/>
  <path class="cls-26" d="M1133.19,1211.72c.64-11.37-1.46-22.98,1.97-36.61,5.82,7.15,3.25,13.19,4.05,18.57-.59,6.49,2.33,14.14-6.02,18.04Z"/>
  <path class="cls-18" d="M1180.99,1109.44c-2.68,9.9,6.96,22.13-5.7,30.14,2.04-10.02-5.14-21.78,5.7-30.14Z"/>
  <path class="cls-71" d="M1205.51,736.24c-1.19.25-2.39.5-3.58.75-3.56-1.05-7.01-2.26-8.77-5.95.89-8.16,7.22-6,12.19-6.42,0,0,0,0,0,0,3.03,3.84,3.41,7.71.16,11.64Z"/>
  <path class="cls-142" d="M1030.16,1337.66c.56-1.75,1.13-3.5,1.69-5.24,3.65-3.2,7.31-6.41,10.96-9.61,1.52,5.73-2.8,8.5-6.01,11.82-2.21,1.01-4.43,2.02-6.64,3.03Z"/>
  <path class="cls-134" d="M989.19,1458.59c-10.14-10.58,7.69-3.69,5.72-9.16,1.96.91,3.91,1.82,5.87,2.73-2.97,3.75-6.57,6.37-11.59,6.43Z"/>
  <path class="cls-58" d="M1030.67,1427.8c1.07.12,2.15.24,3.22.37-1.91,3.53-4.44,6.22-8.78,6.45-.26-4,1.96-5.97,5.56-6.82Z"/>
  <path class="cls-206" d="M958.67,1139.55c-1.97,0-3.94,0-5.91.01-5.59-13.82-3.57-28.57-4.01-42.77-.32-10.28.98-20.91.98-31.39.05-239.27.04-478.53.03-717.8,0,241.83.05,483.65-.33,725.48,0,6.37,6.65,18.29-8.69,18.37h0c-3.88-4.75-2.79-10.44-2.98-15.87-3.77-110.09-1.34-220.22-1.79-330.33-.13-31.49-1.19-62.99,1.48-94.51,1.51-17.87-2.12-36.17-1.02-53.87,2.84-45.97-.08-91.88.59-137.8.82-55.97-1.1-112.05-1.46-168.08-.04-6.57-.79-13.1-6.84-17.42,1.05-7.5,6.77-5.88,11.57-5.83,4.29.04,5.81,2.62,6.45,6.66.89,5.55-3.24,14.18,3.92,15.99,9.91,2.5,21.18,3.84,30.73-1.04,5.66-2.89,9.33-4.55,14.49-.01,4.58,4.03,10.56,2.18,15.92,2.2,37.43.14,74.86.07,113.9.07-4.55,8.43-11.09,5.83-16.18,5.89-47.44.53-94.89.89-142.33.91-4.64,0-7.94-.35-8.38,5.24,2.61,11.79,3.04,23.72,3.03,35.77-.08,259.45-.04,518.91-.16,778.36,0,7.3,2.18,15.12-3.01,21.79Z"/>
  <path class="cls-127" d="M928.72,273.57c8.97-1.15,12.59,2.41,12.19,11.77-.62,14.48-.16,29.01-.16,43.53,0,254.19,0,508.38,0,762.58-7.46-1.06-5.59-6.9-6.03-11.64-12.37-135.07-3.39-270.45-5.72-405.67-.28-15.98,7.71-31.22,6.09-48.01-1.37-14.16-7.69-26.99-7.05-41.96.72-16.88,8.22-32.13,7.39-49.48-.77-15.92-8.77-29.96-7.24-46.49,1.85-20.03,11.35-39.55,6.37-59.91-12.52-51.25-2.57-103.21-5.84-154.72Z"/>
  <path class="cls-199" d="M958.67,1139.55c.05-269.93.1-539.87.12-809.8,0-5.39.53-10.57-3.97-15.35-4.43-4.71-1.79-8.79,3.99-10.76,2.28.13,4.55.26,6.83.39-.23,6-.67,11.99-.68,17.99-.06,266.53.07,533.06-.34,799.58-.04,23.38-4.24,46.6-17.49,66.99-2.38-13.36,1.79-25.44,8.49-36.47,2.6-4.27,2.96-8.16,3.06-12.57Z"/>
  <path class="cls-43" d="M940.75,1091.45c9.9-2.45,5.81-10.55,5.82-16.16.26-91.17.19-182.35.19-273.53,0-153.8-.02-307.59.09-461.39,0-5.56-1.69-11.63,5.91-16.57,0,271.92,0,543.83,0,815.75-9.76-2.31-4.76-10.25-5.97-15.78-1.14-5.16,3-12.49-6.04-14.29,0-6.01,0-12.02,0-18.03Z"/>
  <path class="cls-175" d="M820.39,1289.82c-26.02.01-52.04.02-78.06.04-4.02-10.22,6.04-8.22,10-11.52.66-.16,1.33-.31,2-.45,22.67.4,46.17-3.81,66.07,11.94Z"/>
  <path class="cls-130" d="M706.25,1277.86c-.03-.99-.05-1.98-.07-2.96,16.29-2.98,32.76-8.71,48.14,2.99h0c-16.03,6.69-32.05,4.35-48.08-.02Z"/>
  <path class="cls-186" d="M853.13,1205.16c5.13-5.85,10.26-11.69,15.39-17.54,3.97-4.11,7.95-8.23,11.92-12.34,5.7,8.58-5.68,11.68-5.89,18.37-5.33,6.67-9.38,15.45-20.55,12.55l-.87-1.04Z"/>
  <path class="cls-200" d="M854,1206.19c9.13-.45,13.06-9.42,20.55-12.55-1.06,11.83-7.72,15.9-20.55,12.55Z"/>
  <path class="cls-13" d="M670.13,953.08c-.91.08-1.83.13-2.74.16-1.22.99-2.5,1.08-3.84.28-1.31-1.54-2.6-3.4-2.35-5.31,1.28-9.53-.33-16.82-11.18-19.93-3.48-1-5.91-5.22-5.43-9.78.43-1.39,1.21-2.53,2.33-3.45,3-1.76,5.71-3.66,7.86-6.63,6.24-8.64,13.05-7.35,17.22,1.28,4.55,9.41,10.78,11.19,19.26,7.13,6.16-2.96,12.13-2.37,19.75.04-7.98-7.78-16.53-7.6-24.94-8.24-9.35-.71-16.23-4.37-15.78-15.35,5.95-.1,11.9-.2,17.85-.3,10.44-3.98,19.33,3.58,29.18,3.9,6.97,3.7,12.14,14.44,21.73,8.36,8.16-5.18,5.81-27.17-2.7-36.32-.01-5.99-.02-11.99-.03-17.98,4.32-4.62,2.9-10.38,2.93-15.74.15-23.01-.09-46.01.16-69.02.07-6.2-1.24-14.32,9.77-12.04,5.09,1.05,3.25-3.74,4.64-5.75,4.72-6.87,9.98-11.46,18.52-5.71,0,55.39-.28,110.78.24,166.16.11,11.17-3.12,15.03-14.37,14.45-14.41-.75-29.67-2.47-40.1,11.49-13.71-.89-26.41,1.18-35.96,12.36-2.97,4.07-9.05,1.86-12.01,5.96Z"/>
  <path class="cls-63" d="M631.36,911.23c4.91-.07,9.82-.13,14.73-.2,1.58-.57,3.01-.08,3.21,1.5.28,2.23-1.68,3.32-3.21,4.51h0c-9.36,7.52-7.88,12.8,2.55,18.24,15.09,7.88,14.83,9.26.03,18.14-1.11.8-2.3,1.47-3.54,2.03-13.37,4.92-21.84,14.8-27.66,27.37-1.51,1.76-3.46,2.3-5.69,2.05-1.39-.43-2.54-1.21-3.43-2.37-1.9-4.56-4.35-8.84-6.77-13.15-2.86-9.56-.8-19.13-.06-28.7.11-2.22.61-4.32,2.02-6.11,11.73-1.97,13.58,5.38,13.5,14.66,3.48-1.9,6.46-4.38,10.45-5.36-5.14-4.08-12.91-5.35-13.26-13.7,2.09-9.58,8.93-14.87,17.13-18.92Z"/>
  <path class="cls-94" d="M772.34,742.66c-9.22.33-18.4.33-13.22,14.37,2.15,5.83-1.53,6.94-6.53,5.4-3.31-1.02-3.53-6.23-10.29-5.66,0,26.4.16,52.98-.14,79.56-.06,5.27,3.26,12.64-5.84,14.59-.01-39.27-.14-78.54.11-117.81.03-5.23-3.28-12.63,5.87-14.52,2.99,5.21,14.73.31,12.88,11.12-1.88,2.1-4.22,3.76-6.78,6.36,3.37-1.67,4.5-4.49,6.73-6.18,7.33-1.8,12.04,3.06,17.22,6.74,0,2.01,0,4.02,0,6.04Z"/>
  <path class="cls-164" d="M646.08,917.05c.25-2.01,3.33-4.01,0-6.02,3.58-12.03,15.44-12.79,24.2-17.77,4.35,9.09,11.14,14.04,21.5,11.69,8.83-2,14.85,4.5,22.27,6.67,4.51,1.32,4.65,5.14,3.01,8.51-1.54,3.17-5.68,3.75-7.78,1.87-6.46-5.8-11.2-3.28-18.47-.44-7.73,3.03-20.9,7.22-21.28-10.23-.07-3.02-2.68-5.33-6.1-5.67-3.03-.3-4.84,1.51-5.08,4.25-.75,8.36-6.93,6.94-12.28,7.14Z"/>
  <path class="cls-94" d="M736.35,868.9c12.52,1.76,17.04,12.01,9.22,28.54-2.1,4.44,7.86,13.72-5.22,13.71-9.95,0-18.89-.48-22.11-12.13-1.01-.91-1.53-2.05-1.57-3.41.56-4.58,5.08-5.68,7.56-8.58,9.05-2.69,12.87-8.88,12.11-18.12Z"/>
  <path class="cls-29" d="M604.17,935.17c-.06,1.98-.12,3.96-.18,5.95-4.09,7.39-12.22,11.8-14.92,20.23-10.2,10.35-12.31,26.63-25.49,34.8-2.59-.07-3.74-1.83-4.62-3.92,4.53-14.32,14.5-25.76,20.81-39.14,14.62-15.51,27.39-33.11,47.59-42.36,1.33.17,2.66.34,3.99.5-5.1,5.97-10.2,11.93-15.3,17.9-2.84,4.21-8.7,2.49-11.88,6.04Z"/>
  <path class="cls-13" d="M772.34,736.62c-7.44,2.32-11.87-4.41-18.01-6h0c.62-8.65-12.65-3.39-12.03-12.03,3.9,0,7.87.51,11.67-.09,14.54-2.3,21.27,2.93,18.38,18.12Z"/>
  <path class="cls-164" d="M718.24,896c0,1,0,2,0,3.01-10.83,1.95-20.28-3-30.1-6.04,3.16-10.74,12.06-3.98,18.1-5.92,3.5,3.66,9.27,4.27,12,8.96Z"/>
  <path class="cls-13" d="M718.24,896c-5.45-1.05-11.08-1.86-12-8.96,6,0,11.99-.02,17.99-.02.52,4.67-4.18,5.87-5.99,8.98Z"/>
  <path class="cls-129" d="M1172.6,367.73c-5.09-13.37-2.82-27.13-3.16-40.69-.13-5.29,5.21-3.87,8.11-4.16,3.14-.32,4.07,3.02,2.9,5.37-6.19,12.47-4.54,26.24-7.85,39.48Z"/>
  <path class="cls-51" d="M1145.15,315.77c3.72-11.23,12.19-4.16,19.17-4.92-4.55,5.38-7.74,11.16-9.58,18.1-6.25-3.19-.46-13.55-9.63-13.23l.03.05Z"/>
  <path class="cls-133" d="M1150.99,361.47c-4.99-8.53-5.8-18.17-7.35-27.62.53-.17,1.06-.33,1.59-.5,11.59,7.39,3.82,18.75,5.76,28.12Z"/>
  <path class="cls-189" d="M1145.24,333.35c-.54.13-1.07.3-1.59.5-.56-3.88-1.13-7.76-1.69-11.64.37-2.49.46-5.12,3.2-6.44,0,0-.03-.05-.03-.05.04,5.87.08,11.75.12,17.62Z"/>
  <path class="cls-67" d="M826.49,1482.35c-2.32,9.86-10.33,4.99-15.93,5.94-4.27.72-8.12,1.22-7.67,6.71.47,5.66,4.98,5.38,8.9,5.26,2.38-.07,5.6-.16,6.98-1.62,11.67-12.39,26.79-11.11,41.35-10.02,11.69.88,20.66-9.98,32.56-6.24,6.95,4.21,15.31,7.96,5.92,17.65-.62.72-1.4.99-2.33.8-13.82.96-26.56,7.03-40.27,8.52-25.2,2.01-50.03,8.38-75.57,6.46-18.69-1.41-37.88,2.76-56-4.97-7.41-9.21-16.09-7.36-25.08-2.79-2.32.08-4.54-.26-6.55-1.51-8.39-4.68-17.56-6.79-26.88-8.63-6.43-1.27-12.31-3.42-6.02-12.44-6.51,2.26-11.24,6.53-17.63,5.77-3.52-.42-7.32-.3-8.81-4.29-1.52-4.1,1.36-6.57,4.22-8.68,5.42-3.99,11.7-5.79,18.33-5.85,13.47-.13,27.05,1.79,40.25,1.86,26.34.14,52.27,7.07,78.67,3.77,4.04-.5,7.93-.98,11-4.03,9.86-9.82,21.6-7.91,33.45-5.28.72,3.01-1.18,7.36,5.37,6.71,2.93-.29,3.86,3.83,1.73,6.91Z"/>
  <path class="cls-40" d="M898.6,1500.03c4.36-8.01-4.04-11.74-5.92-17.66,12.2,2,23.62,8.62,36.57,6.17-9.17,6.62-19.82,9.27-30.65,11.48Z"/>
  <path class="cls-80" d="M856.6,1506.53c13.48-.07,25.55-9.99,39.67-5.7-3.28,1.65-6.55,3.31-9.83,4.96-8.43.6-16.49,2.64-24.18,6.17-3.88.02-7.77.05-11.65.07-1.42-5.55,4.61-2.99,5.98-5.5Z"/>
  <path class="cls-77" d="M934.82,1488.38c7.08-5.91,15.17-9.67,24.2-11.45-4.33,11.72-13.95,12.24-24.2,11.45Z"/>
  <path class="cls-22" d="M910.37,1512.08c-4.86.65-9.97,1.33-15.31,2.04,8.1-9.99,8.2-10,15.31-2.04Z"/>
  <path class="cls-134" d="M976.47,1464.08c1.73-7.56,7.48-5.87,12.66-5.51-1.57,3.79-4.88,5.17-8.48,6.14-1.61,1.22-3,1.01-4.18-.63Z"/>
  <path class="cls-118" d="M976.47,1464.08c1.39.21,2.78.42,4.17.63-2.54,3.1-5.41,5.65-9.73,5.73-.43-.43-.85-.86-1.28-1.3-.61-1.88-.42-3.53,1.32-4.75,1.84-.1,3.67-.21,5.51-.31Z"/>
  <path class="cls-118" d="M958.71,1476.25c.05-.96.07-1.93.08-2.89,2.48-4.97,6.09-6.65,11.24-3.85l.89.94c-3.43,3.29-7.07,6.12-12.21,5.81Z"/>
  <path class="cls-92" d="M345.45,1169.61c8.04-.99,5.37-7.31,5.97-12.01,5.49-4.08,11.15-7.16,18.02-3.01,6.33,38.59,11.81,77.35,27.06,115.94-11.25-1.01-7.4-11.73-15.02-10.72,0-2,0-4,0-6-13.12-20.71-21.46-43.1-24.56-67.53-.9-7.08-10.65-9-11.47-16.68Z"/>
  <path class="cls-156" d="M369.44,1154.59c-6.01,1.01-11.67,4.07-18.02,3.01.58-7.68-2.91-16.25,9.33-19.78,5.46-1.58,1.93-10.67,2.7-16.32,9.64,2.26,5.21,10.07,5.84,15.6.65,5.76.15,11.65.15,17.48Z"/>
  <path class="cls-156" d="M363.43,1103.49c-4.01-1-8.01-2.01-12.02-3.01-2.57-3.01-2.57-6.01,0-9.02,4.01,0,8.01,0,12.02,0,0,4.01,0,8.03,0,12.04Z"/>
  <path class="cls-147" d="M339.35,983.19c-2.3,12.61-7.96,24.6-6.49,37.93.3,2.7-2.83,3.74-5.38,4.25-.25-2.04-.5-4.08-.75-6.11,2.85-11.92,2.12-24.52,6.93-36.06,1.89-1.78,3.78-1.76,5.68,0Z"/>
  <path class="cls-172" d="M339.35,983.19c-1.89,0-3.79,0-5.68,0-.12-7.84,2.22-15.11,5.14-22.26,3.54,3.23,3.03,6.72.66,10.32-.04,3.98-.07,7.95-.11,11.93Z"/>
  <path class="cls-147" d="M339.46,971.27c-.22-3.44-.44-6.88-.65-10.32.34-1.6.68-3.2,1.03-4.8,1.86,0,3.72,0,5.58,0-1.22,5.34,3.51,13.02-5.95,15.13Z"/>
  <path class="cls-95" d="M1397.81,753.58c4.93-25.65,1.42-51.51,1.66-77.25.31-32.81-.82-65.64-1.33-98.46.29-1.06.57-2.13.86-3.2,7.42,4.54,15.81,5.04,24.13,5.64q24.44,1.76,23.12,27.05c-1.82,1.65-3.89,1.88-6.12,1.05-1.13-.85-1.98-1.96-2.59-3.23-2.19-4.5.34-10.34-4.01-14.24-2.37-.79-4.81-.83-7.26-.86-4.46.25-8.99-.61-14.42,1.35-.33,4.99,8.43,7.68,4.77,13.63,4,20.67,5.04,40.92-1.48,61.7-3.5,11.15-1.11,23.64.21,35.66,1.43,13.01,5.39,26.05,2.27,39.38-6.7,3.88-9.78,12.73-18.64,13.67-.39-.63-.77-1.27-1.16-1.9Z"/>
  <path class="cls-17" d="M1439.94,607.35c2.1,0,4.21.01,6.31.02,3.7,60.77,1.26,121.64,2.7,182.44.48,20.45-14.9,9.6-23.29,12.58-29.22-5.49-59.29-5.8-87.99-14.46-2.31-.7-4.52-1.73-6.77-2.61.54-.66,1.07-1.33,1.61-2,5.43-3.36,11.55-3.17,17.49-2.83,13.08.75,25.85,6.16,39.35,1,4.61-1.76,9.47,2.22,13.68,4.99,5.15,3.38,10.68,5.32,16.99,4.62,10.14-1.12,15.91-4.62,15.73-16.87-.71-48.99-.38-98.01.05-147.01.06-6.79-1.7-14.18,4.14-19.86Z"/>
  <path class="cls-21" d="M561.42,1453.05c-16.18-4.76-28.19-15.42-39.08-27.66,2.22-4.66,5.62-5.97,10.3-3.6,16.61,1.9,29.46,12.69,44.32,18.73,2.46,1.58,5.02,3.12,2.78,6.66-5.12,4.37-12.62-.28-17.6,4.65l-.72,1.23Z"/>
  <path class="cls-3" d="M532.64,1421.79c-3.43,1.2-6.87,2.4-10.3,3.6-8.59-2.71-12.92-11.24-20.64-15.14-6.78-8.12-13.55-16.25-20.33-24.37,17.14,11.91,36.47,20.68,51.27,35.91Z"/>
  <path class="cls-1" d="M579.9,1446.31c-.98-1.93-1.95-3.86-2.93-5.79,1.87.09,3.73.17,5.6.26,14.27,8.89,31.34,10.25,46.33,17.19-15.35,7.66-37.6,2.37-49-11.66Z"/>
  <path class="cls-60" d="M1361.81,562.11c-7.12-5.87-17.62-4.86-24.18-11.87,14.65,2.29,28.25-2.76,42.1-6.05,5.29,9.34,2.14,14.14-8.14,14.93-3.52.27-7.01.38-9.78,2.99Z"/>
  <path class="cls-96" d="M1361.81,562.11c.38-5.3,4.09-6.21,8.26-5.84,9.48.84,10.11-5.12,9.66-12.08,2.01,0,4.02,0,6.03-.01,13.92,5.69.73,11.67-.01,17.36-1.19,9.06-5.46,2.49-9.11,1.66-4.78-1.09-9.87-.79-14.82-1.09Z"/>
  <path class="cls-147" d="M327.04,1033.14c12.28,32.79,3.7,66.93,6.45,100.33-.15,2.38-.3,4.77-.45,7.16-8.41-35.47-11.41-71.25-6-107.49Z"/>
  <path class="cls-171" d="M579.9,1446.31c15.75,6.31,31.06,14.51,49,11.66,38.74,7.87,77.68,13.8,117.4,11.97,13.92-.64,27.84-1.39,41.36-5.23,5.77-.23,11.54-.46,17.31-.69,8.47-1.31,16.95-2.53,25.57-2.09,2.67.82,4.4,2.63,5.44,5.16.54,1.81.08,3.33-1.36,4.56-5.01,2.71-9.75,2.46-14.16-1.31-6.5,0-13-.06-19.5.05-2.47.04-6.71-.19-7.15.9-7.5,18.77-23.68,10.27-35.94,10.53-12.88.27-26.97,5.37-39.01-4.35-1.03-.83-3.2-1.4-4.26-.89-19.51,9.42-38.75-4.65-58.36-.54-7.89,1.65-15.17,2.93-22.18,10.09,14.63,6.2,26.98-11.32,40.23-1.34-2.26,7.37-11.63,0-14.74,7.81,12.3,2.94,26.63.91,34.67,13.48-2.08,2.34-4.45,1.81-6.87.66-22.8-2.08-43.41-11.73-64.82-18.64-7.44-5.65-15.77-9.43-24.81-11.69-3.11-3.59-6.94-5.81-11.75-6.12-2.04-1.88-4.08-3.77-6.12-5.65-3.25-7.93-8.76-12.76-17.7-12.83,3.33-10.17,11.83-3.7,17.76-5.52Z"/>
  <path class="cls-197" d="M687.35,1506.76c2.29-.22,4.58-.44,6.87-.66,2.03.03,4.07.05,6.1.08,8.02-4.01,16-4.21,23.93.24,4.65,5.62,11.03,6.02,17.64,6,25.23-.07,50.47.21,75.69-.19,13.18-.21,25.24-8.92,39.02-5.7-2,1.84-3.99,3.67-5.99,5.5-10.24,2.04-20.48,4.08-30.72,6.11-37.75.71-75.51,2.04-112.86-5.62-6.76-1.39-13.86-1.29-19.68-5.77Z"/>
  <path class="cls-79" d="M561.84,995.17c8.06-12,16.12-24,24.19-36,6.02-3.55,7.57,1.09,8.91,5.18,1.49,4.58,3.46,7.95,9.06,6.82,8.04.98,5.44,7.3,6.01,12.02-.93,1.25-2.69,2.12-1.95,4.15.85-1.29.41-3.18,1.95-4.15h6c9.45-5.37,14.05-1.77,15.24,8.19.45,12.23-13.64,16.75-14.97,28.07,0,0,.03.1.03.1-2.1-.09-4.2-.18-6.29-.27-2.78,6.55-9.03,8.8-14.58,12.03-4.29,2.5-6.35,7.23-5.43,11.47.59,2.73,5.38-3.32,7.94.58-.77,14.2-8.93,27.29-6.33,42-7.89,1.07-13.33-1.56-15.98-11.49,10.77,28.62-6.04,56.72,4.29,83.74-6.5.15-6.82-7.51-11.78-9.31-.08-3.98-.95-8.13-.1-11.89,3.79-16.72-8.7-23.83-18.57-32.55,0,0,0,.01,0,.01-4.14-26.3-3.54-52.6.07-78.89l-.13.02c6.48-8.97,4.05-21.66,12.43-29.83Z"/>
  <path class="cls-179" d="M1277.57,772.48c-2.25-1.68-4.5-3.36-6.75-5.03,0,0,.99-1.07.99-1.07,15.38-8.79,28.16,1.13,41.51,6.06,2.15.79,1.93,4.23.7,6.64-2.37,1.32-4.72,1.22-7.06-.06-10.5.98-18.92-7.39-29.39-6.54Z"/>
  <path class="cls-203" d="M1306.95,779.02c2.25-.21,4.51-.41,6.76-.62,8.08-3.51,16.63-8.45,18.8,6.14-.51.31-1.05.57-1.62.77-8.46-.26-17.06-.02-23.94-6.29Z"/>
  <path class="cls-146" d="M597.94,1043.37c-5.23-.75-5.14,5.13-8.39,6.91-6.24-14.04-4.33-20.17,8.92-24.73,4.39-1.51,7.5-4.58,11.54-6.27-.15,3.93-.3,7.85-.45,11.78-4.76,3.26-12.6,3.62-11.62,12.31Z"/>
  <path class="cls-140" d="M1332.51,784.54c-3.83-9.53-12.48-4.26-18.8-6.14-11.84-11.45-26.92-11.58-41.91-12.02-.1-1.9-.21-3.8-.32-5.69,2.37-3.03,6-2.91,9.26-3.73-4.12-1.31-7.88-1.75-9.25,3.74-8.1,1.38-13.29-3.69-18.75-8.23,2.19-6.23,12.79-1.02,12.76-9.8,6.2-5.06,12.56-3.19,18.93-.43,23.06-1.37,45.02,5.8,67.53,8.71,14.99,5.7,30.85-.46,45.97,3.39,7.7-1.25,6.51-16.06,17.87-11.72,1.95,1,3.11,3.98,6.05,2.3,4.72-8.1,1.29-15.2-2.48-22.29-1.04-4.03-.64-7.91,1.07-11.67,1.48-2.61,3.14-5.26,2.92-8.33-2.27-31.84,9.21-62.77,6.17-94.63.74-5.44-.82-10.44-3.05-15.32-.59-2.32-.36-4.46,1.37-6.27,3-.01,6.01-.03,9.01-.04,3.76,5.52-.9,12.45,3,17.95.02,1.01.05,2.02.07,3.03-.02,55.09.05,110.18-.19,165.27-.03,7.27,3.21,19.86-2,20.84-11.44,2.14-25.22,8.01-35.79-1.45-8.38-7.5-15.14-10.56-24.46-2.58-1.58,1.35-5.85,2.04-7.06.97-11.51-10.18-25.33-3.94-37.93-5.86Z"/>
  <path class="cls-53" d="M1259.34,736.73c-5.71,8.43-14.15,11.33-23.81,11.77-7.85-1.47-14.02-5.71-19.21-11.61-1.94-6.13,1.91-9.48,6.07-12.68,1.3-.68,2.69-1.01,4.16-.98,3.83.48,5.8,4.13,9.17,5.4,6.54,6.58,16.96,1.86,23.61,8.1Z"/>
  <path class="cls-159" d="M1259.34,736.73c-9.16-1.27-19.68,3.5-26.95-6.1,1.02-7.43,5.73-3.94,9.5-3.21,14.22,1.12,26.85,9.29,41.31,9.35.41,1.82.82,3.65,1.23,5.47-6.31.14-12.62.28-18.93.42-1.19-2.87-3.15-4.95-6.16-5.93Z"/>
  <path class="cls-159" d="M1217.35,736.54c5.74,4.48,14.69,4.07,18.18,11.97-.94,1.04-1.89,2.07-2.83,3.11-3.1-1.07-6.19-2.14-9.29-3.21-1.46-6.72-11.56-4.16-12.39-11.55,2.02-1.82,4.13-2.04,6.32-.31Z"/>
  <path class="cls-164" d="M670.13,953.08c1.03-7.99,7.3-5.39,12.01-5.96-.12,1.77-.23,3.53-.35,5.29-3.89.22-7.77.44-11.66.66Z"/>
  <path class="cls-20" d="M628.03,995.19c1.35-9.38-2.74-13.29-12.03-11.99,1.62-14.55,15.52-28.45,30.08-30.07,4.47,5.15,3.04,9.88-1.5,13.85-3.84,3.36-6.78,6.87-6.23,12.3-.31,3.24,2.89,6.01,1.3,9.42-2.07,2.11-4.15,4.22-6.22,6.32-1.75,1.89-3.54,2.04-5.41.17Z"/>
  <path class="cls-90" d="M628.03,995.19c1.8-.05,3.6-.11,5.41-.17-.87,8.61-9.87,12.53-11.81,20.52-1.79,1.3-3.57,2.6-5.35,3.9-5.94-12.86,11.32-14.49,11.76-24.26Z"/>
  <path class="cls-177" d="M639.66,988.7c-1.84-1.73-3.67-3.46-5.51-5.19,3.39-3.35,7.09-3.81,11.11-1.16,0,0,.74.76.74.76-1.32,2.77-3.02,5.09-6.34,5.59Z"/>
  <path class="cls-109" d="M645.26,982.35c-3.7.38-7.41.77-11.11,1.16.72-7.59-3.83-17.17,9.2-19.71,4.09-.8,2.39-6.87,2.74-10.67,6-3.89,12.01-4.31,18.02-.04,1.09.05,2.19.09,3.28.14.25,7.8-7.63,10.8-10.07,17.01-6.03,2.04-10.13,5.99-12.06,12.11Z"/>
  <path class="cls-38" d="M1217.35,736.54c-2.11.1-4.21.21-6.32.31-1.84-.2-3.68-.4-5.52-.61-.05-3.88-.11-7.76-.16-11.64,2,0,4,0,6.01,0,4.07-2.79,8.06-2.48,11.96.35-1.99,3.86-3.97,7.72-5.96,11.58Z"/>
  <path class="cls-150" d="M1127.53,1160.89c-1.73,5.1,3.14,13.13-6.55,14.67.29-7.76,1.88-15.2,5.61-22.09,2.41,2.21,2.56,4.7.94,7.42Z"/>
  <path class="cls-126" d="M1127.53,1160.89c-.31-2.47-.63-4.94-.94-7.42-.3-.72-.14-1.32.47-1.8,2.03-.03,4.07-.07,6.1-.11-1.82,3.14,4.53,11.21-5.62,9.32Z"/>
  <path class="cls-71" d="M1241.89,727.42c-3.4.38-7.21-.45-9.5,3.21-2-2-3.99-4-5.99-5.99-.99-.59-1.31-1.18-.98-1.76.33-.58.66-.87.99-.87,5.63.47,10.82,2.18,15.48,5.42Z"/>
  <path class="cls-159" d="M1226.41,722c-.01.88-.02,1.76-.01,2.64-1.03.11-2.06.21-3.08.32-3.99-.11-7.98-.23-11.96-.35.11-2.88,1.04-5.27,3.89-6.51,2.9,3.65,7.56,2.28,11.17,3.9Z"/>
  <path class="cls-205" d="M635.17,897.31c.72-3.7-1.52-7.9,3.27-9.25,1.29-.36,4.73,1.81,4.64,2.52-.48,4.06-4.17,5.01-7.91,6.73Z"/>
  <path class="cls-205" d="M656.14,884.55c-1.82.74-3.5,1.76-5.3,2.05-1.26.21-3.51-.48-1.52-2.36,1.34-1.26,3.51-1.65,5.37-2.26.14-.05.73,1.27,1.45,2.56Z"/>
  <path class="cls-14" d="M549.54,1024.99c-.02,26.3-.05,52.59-.07,78.89-8.94-20.3-4.6-41.71-5.17-62.7,4.17-4.61.02-11.92,5.24-16.19Z"/>
  <path class="cls-45" d="M835.52,1470.33c-1.01-2-2.03-4.01-3.04-6.01-1.77-2.08-1.76-4.22-.25-6.43l-.04.11c6.07-2.22,13.23-.8,18.53-5.56,11.62-4.21,23.24-8.42,34.86-12.62,9.25,2.14,17.36-.78,25.04-5.61,2.02,0,4.03.02,6.05.02,4.59,5.06-2.91,8.31-1.89,14.31,4.96-6.21,7.05-11.3,1.93-17.29,3.16-4.4,7.88-2.58,12.03-3.02,12.38,1.65,15.12,6.34,9.88,17.07-7.14,14.64-15.7,24.04-34.83,26.35-25.73,3.11-51.1,9.96-77.3,10.7-.33-3.02-1.29-5.62-4.87-5.79-9.38-.45-1.73-3.98-1.16-6.22h15.05c.66.64,1.28,1.33,2.11,1.77-.77-.51-1.47-1.1-2.1-1.77Z"/>
  <path class="cls-86" d="M916.71,1431.25c10.19,3.21,6.7,11.68,4.87,17.22-2.16,6.54-9.04,3.52-14.65,2.84-.97-8.33,9.88-9.68,9.73-17.09.02-.99.04-1.98.04-2.97Z"/>
  <path class="cls-41" d="M1036.98,1350.05c-.59,4.72,2.03,11.04-6.01,12.03.09-4.5-1.03-9.47.53-13.38,2.59-6.48,4.5-2.81,5.48,1.35Z"/>
  <path class="cls-8" d="M1397.93,754.34c-15.98.07-31.97.16-47.95.14-1.11,0-2.22-.86-3.34-1.32,1.77-.74,3.54-1.48,5.31-2.22,15.29.88,30.57,1.75,45.86,2.63,0,0,.12.77.12.77Z"/>
  <path class="cls-144" d="M832.22,1457.89c.08,2.14.17,4.29.25,6.43-9.17-.1-18.34-.2-27.51-.3,8.71-3.73,17.77-5.88,27.26-6.13Z"/>
  <path class="cls-144" d="M850.72,1452.44c-3.57,10.56-12.17,4.31-18.53,5.56,5.5-4.1,11.81-5.51,18.53-5.56Z"/>
  <path class="cls-44" d="M706.25,1277.86c16.03,0,32.05,0,48.08.01.66,8.66-12.61,3.37-12,11.98-11.6.56-21.3-9.94-33.53-5.77-1.05.02-1.98-.3-2.79-.98.08-1.75.16-3.49.24-5.24Z"/>
  <path class="cls-14" d="M561.84,995.17c-1.51,8.52-7.18,15.93-6.35,25.16.32,3.55-2.88,4.61-6.08,4.67.28-11.77,4.78-22.32,9.56-32.78.96.98,1.91,1.97,2.87,2.95Z"/>
  <path class="cls-57" d="M487.01,833.01c1.83-4.08,4.54-7.33,8.72-9.17-.23,5.61-3.2,8.6-8.72,9.17Z"/>
  <path class="cls-127" d="M351.42,1091.45c0,3.01,0,6.01,0,9.02-.27,4.36-.53,8.72-.8,13.08-1.37.04-2.74.09-4.11.13-9.05-38.22-8.27-77.15-7.22-115.69,4.41-1.22,5.93.2,5.75,2.33-2.73,30.72,10.53,60.32,6.38,91.12Z"/>
  <path class="cls-55" d="M1145.24,754.64c2,.01,3.99.03,5.99.04v319.6c-2,0-3.99,0-5.99,0v-319.65Z"/>
  <path class="cls-182" d="M970.02,1469.5c-3.75,1.28-7.49,2.57-11.24,3.85-2.23-.68-4.52-1.19-6.66-2.08-4.18-1.74-6.5-4.9-4.53-9.34,2.19-4.94,6.76-4.46,9.74-1.62,4.12,3.93,8.72,3.98,13.63,4.07-.31,1.7-.62,3.41-.93,5.11Z"/>
  <path class="cls-41" d="M952.77,1416.23c3.93.06,5.91,2.08,6.01,5.98-.78,5.89-5.15,7.85-8.97,4.69-4.74-3.92,4.52-6.27,2.95-10.68Z"/>
  <path class="cls-126" d="M1139.15,1121.5c-2.16,9.99,5.51,21.94-5.99,30.07,3.16-9.79-6.48-22.13,5.99-30.07Z"/>
  <path class="cls-164" d="M664.1,953.1c-6.01.01-12.01.02-18.02.04-.38-7.26,7.91-4.46,10.22-8.53-5.13-9.21-22.66-4.12-22.02-19.3.3-7.27,5.82-8.41,11.8-8.25,2.86,11.51,12.61,12.09,23.9,13.07-7.04,7.46-5.72,15.34-5.87,22.97Z"/>
  <path class="cls-94" d="M759.08,804.77v68.05c-15.23-22.44,1.46-45.4-5.43-67.96,1.81-.03,3.62-.06,5.43-.09Z"/>
  <path class="cls-94" d="M764.66,908.02c-.37,2.63-2.44,2.71-4.36,2.71-1.93,0-4.25-.15-4.23-2.77.02-2.64,2.36-2.69,4.29-2.69,1.93,0,3.98.11,4.3,2.75Z"/>
  <path class="cls-164" d="M603.99,971.17c-.45,4.18-2.65,6.18-6.95,5.65-3.7-.46-4.64-3-4.99-6.21-.49-4.58,1.45-10.52-6.03-11.44,3.45-8.54,9.57-14.44,17.97-18.06,0,10.02,0,20.04,0,30.06Z"/>
  <path class="cls-164" d="M604.17,935.17c2.07-5.73,6.75-6.32,11.88-6.04,4.16,9.79,13.58,11.26,25.34,13.96-10.36,4.99-20.61,4.6-25.87,13.09-.42.68-3.11.93-3.78.32-2.08-1.89-2.02-4.85-.59-6.83,6.74-9.36-.5-11.69-6.98-14.51Z"/>
  <path class="cls-13" d="M754.33,730.62c-.62,4.89,2,11.81-6.93,11.61-2.76-.06-4.62-1.93-4.68-4.69-.2-8.94,6.73-6.3,11.61-6.93h0Z"/>
  <path class="cls-64" d="M724.25,1506.42c-7.98-.08-15.96-.16-23.93-.24,8.07-9.26,16.05-9.53,23.93.24Z"/>
  <path class="cls-35" d="M1421.85,712.57c0,4.02,0,8.03,0,12.05,4.36,8.01,4.36,16.03,0,24.04-.61,2.04-.62,5.72-3.76,4.13-4.04-2.05-1.65-6.69-2.28-10.15-2.6-22.07-6.67-43.97-6.07-66.36.45-17.12,9.08-33,6.43-50.76-1.2-8.04.26-16.03-11.17-16.77,2.78-6.29,7.37-3.6,10.8-4.45,3.06-1.92,5.53-1.01,7.67,1.57,4.97,9.93,3.23,20.64,3,30.99-.5,21.96-2.29,43.88-1.71,65.87.09,3.57-.5,6.98-2.9,9.84Z"/>
  <path class="cls-110" d="M1421.82,604.33c-2.01-.01-4.02-.03-6.03-.04.89-8.45-16.03-4.29-10.95-13.78,4.86-9.07,15.27-2.47,23.02-4.09,0,1.96,0,3.92,0,5.88-1.11,3.75-2.68,7.31-4.53,10.76-.49.43-1,.85-1.5,1.27Z"/>
  <path class="cls-110" d="M1439.87,604.33c-5.44-5.24-2.03-11.96-3-17.95,5.51,5.23,1.98,11.97,3,17.95Z"/>
  <path class="cls-20" d="M610,983.2c-1.87,4.44,7.64,6.29,2.78,10.93-2.11,2.01-6.14,1.37-7.55-1.53-2.24-4.62-1.35-8.58,4.78-9.41h0Z"/>
  <path class="cls-66" d="M1421.85,712.57c0-36.08-.02-72.16-.03-108.24,0,0,.06-.04.06-.04,3.98-3.15,7.97-3.14,11.95,0,0,12.42,2.39,25.42-.48,37.14-5.33,21.77-5.56,43.57-5.71,65.57-.02,3.65-2.58,5.04-5.79,5.57Z"/>
  <path class="cls-111" d="M1407.67,775.17c-8.66,4.69-17.27,3.62-25.89.94,8.51-4.85,17.23-2.97,25.89-.94Z"/>
  <path class="cls-152" d="M1271.49,760.69c-1.09-1.54-2.18-3.08-3.26-4.62,5.64.64,8.88-8.41,14.98-4.16,2.48,1.73,6.54,2.84,6.77,7.51-5.99,2.69-12.37.6-18.5,1.27h0Z"/>
  <path class="cls-66" d="M1421.85,748.65c0-8.01,0-16.03,0-24.04,9.67,8.02,9.68,16.03,0,24.04Z"/>
  <path class="cls-180" d="M1433.83,604.29c-3.98,0-7.97,0-11.95,0,.49-4.74-2.07-11.01,5.97-12,8,1,5.48,7.25,5.98,11.99Z"/>
  <path class="cls-67" d="M835.52,1470.33c4.5.41,9.38-1.13,17.38,4.66-9.24.55-14.71,5.08-17.39-4.65h0Z"/>
</svg>